<?xml version="1.0" encoding="UTF-8" standalone="no"?>
<svg
   xmlns:osb="http://www.openswatchbook.org/uri/2009/osb"
   xmlns:dc="http://purl.org/dc/elements/1.1/"
   xmlns:cc="http://creativecommons.org/ns#"
   xmlns:rdf="http://www.w3.org/1999/02/22-rdf-syntax-ns#"
   xmlns:svg="http://www.w3.org/2000/svg"
   xmlns="http://www.w3.org/2000/svg"
   xmlns:xlink="http://www.w3.org/1999/xlink"
   xmlns:sodipodi="http://sodipodi.sourceforge.net/DTD/sodipodi-0.dtd"
   xmlns:inkscape="http://www.inkscape.org/namespaces/inkscape"
   sodipodi:docname="map svg.svg"
   inkscape:version="1.0 (4035a4f, 2020-05-01)"
   width="16.0px"
   height="16.0px"
   viewBox="0 0 16.0 16.0"
   version="1.1"
   id="SVGRoot">
  <defs
     id="defs943">
    <linearGradient
       id="linearGradient2817"
       inkscape:collect="always">
      <stop
         id="stop2813"
         offset="0"
         style="stop-color:#b9ece9;stop-opacity:1;" />
      <stop
         id="stop2815"
         offset="1"
         style="stop-color:#b9ece9;stop-opacity:0;" />
    </linearGradient>
    <linearGradient
       osb:paint="gradient"
       id="linearGradient2803"
       inkscape:collect="always">
      <stop
         id="stop2799"
         offset="0"
         style="stop-color:#b9ece9;stop-opacity:1;" />
      <stop
         id="stop2801"
         offset="1"
         style="stop-color:#000000;stop-opacity:0;" />
    </linearGradient>
    <linearGradient
       osb:paint="solid"
       id="linearGradient2793">
      <stop
         id="stop2791"
         offset="0"
         style="stop-color:#00005c;stop-opacity:1;" />
    </linearGradient>
    <rect
       id="rect2777"
       height="52.499997"
       width="112.49999"
       y="110.67993"
       x="61.677104" />
    <rect
       id="rect2771"
       height="129.93555"
       width="167.06587"
       y="-324.42116"
       x="267.21994" />
    <rect
       id="rect2765"
       height="194.40841"
       width="214.42377"
       y="-337.96977"
       x="131.45618" />
    <rect
       id="rect2759"
       height="177.13016"
       width="399.3129"
       y="27.629796"
       x="-48.180064" />
    <rect
       id="rect2753"
       height="146.45366"
       width="248.35233"
       y="-2.0568691"
       x="30.430432" />
    <clipPath
       clipPathUnits="userSpaceOnUse"
       id="clipPath2583">
      <path
         d="M 0,198 H 198 V 0 H 0 Z"
         id="path2581" />
    </clipPath>
    <linearGradient
       gradientUnits="userSpaceOnUse"
       y2="136.07465"
       x2="141.4579"
       y1="136.07465"
       x1="45.010199"
       id="linearGradient2795"
       xlink:href="#linearGradient2793"
       inkscape:collect="always" />
    <linearGradient
       gradientUnits="userSpaceOnUse"
       y2="136.07465"
       x2="141.4579"
       y1="136.07465"
       x1="45.010199"
       id="linearGradient2819"
       xlink:href="#linearGradient2817"
       inkscape:collect="always" />
  </defs>
  <sodipodi:namedview
     inkscape:window-maximized="0"
     inkscape:window-y="23"
     inkscape:window-x="57"
     inkscape:window-height="915"
     inkscape:window-width="1292"
     showgrid="true"
     inkscape:document-rotation="0"
     inkscape:current-layer="surface1"
     inkscape:document-units="px"
     inkscape:cy="124.60188"
     inkscape:cx="275.10131"
     inkscape:zoom="0.88863317"
     inkscape:pageshadow="2"
     inkscape:pageopacity="0.0"
     borderopacity="1.0"
     bordercolor="#666666"
     pagecolor="#ffffff"
     id="base">
    <inkscape:grid
       type="xygrid"
       id="grid1513" />
  </sodipodi:namedview>
  <metadata
     id="metadata946">
    <rdf:RDF>
      <cc:Work
         rdf:about="">
        <dc:format>image/svg+xml</dc:format>
        <dc:type
           rdf:resource="http://purl.org/dc/dcmitype/StillImage" />
        <dc:title></dc:title>
      </cc:Work>
    </rdf:RDF>
  </metadata>
  <g
     id="layer1"
     inkscape:groupmode="layer"
     inkscape:label="Capa 1">
    <g
       transform="matrix(1.3333334,0,0,1.3333334,77.763857,-167.57325)"
       id="surface1">
      <path
         d="m 213.86328,-167.57422 -4.0625,4.54297 v 7.41016 l -0.95898,0.24023 -1.91211,2.15039 -3.58203,1.67188 -0.71875,1.67187 -3.10547,-1.43164 h -0.47852 c -2.86979,0 -8.84375,5.97461 -8.84375,5.97461 0,0 -14.3431,-0.24023 -14.82226,0.47852 -0.47917,0.71875 -5.02149,4.30273 -5.02149,4.30273 h -2.15039 l -0.69922,0.96289 -8.33789,-0.25586 -0.75586,1.52149 -2.27539,1.25976 -2.02148,1.26563 -2.01953,1.01171 -2.52735,1.51563 -0.2539,1.76563 h -2.27149 L 146.28516,-130 h -2.02149 l -0.75586,1.00977 h -7.07812 l -4.04102,4.04687 1.26563,6.56836 2.77539,0.75391 2.27734,2.02148 0.50391,4.04688 -1.26563,1.25976 -1.00976,1.51563 c -1.76563,1.01041 3.79101,8.08398 3.79101,8.08398 l -1.51562,1.015626 h -2.01953 l -0.25586,16.421875 -1.51563,0.505859 -0.25,2.525391 -1.51562,0.505859 -0.75977,3.03125 -8.84375,8.082031 -1.26172,0.761719 c -3.79166,-1.015625 -10.35937,10.359375 -10.35937,10.359375 l -2.27539,2.269531 -1.76563,4.042969 4.80274,11.625 h -1.77149 v 1.515625 l -1.00976,1.515625 0.2539,1.515625 -1.76953,0.25 -0.25586,2.78125 -1.25976,0.503906 -0.25,1.771485 -1.01563,0.755859 -0.25,4.546875 -1.01172,1.515625 -0.75976,2.53125 -3.28125,1.515625 -13.140628,-0.505859 c -2.526043,1.260413 -4.296875,5.808593 -4.296875,5.808593 -3.28125,6.5729554 9.349609,19.2031254 9.349609,19.2031254 v 1.515625 l -1.261718,0.2539062 v 4.7968754 l -1.515626,1.265625 -1.009765,0.755859 0.25,1.769531 -1.515625,1.767578 -0.50586,1.519532 -1.259765,-0.253907 v 6.060547 h 1.259765 v 2.527344 l 1.771485,1.009766 V 30.4375 l 1.009765,0.755859 v 1.769532 l 1.261719,0.505859 v 2.019531 L 92.722656,36.25 v 4.796875 l 1.009766,0.759766 V 48.125 l -1.259766,1.009766 -0.255859,5.8125 c -3.281251,3.281253 -10.865229,6.0625 -10.865235,6.0625 l -1.259765,-0.50586 -2.275391,0.25 C 76.80599,66.566413 90.451172,72.125 90.451172,72.125 l 5.80664,1.265625 c 3.791668,0.7552 5.812498,5.302734 5.812498,5.302734 0,1.770827 10.86524,10.863282 10.86524,10.863282 l 9.60351,4.296875 0.50586,-1.009766 1.76563,-1.771484 1.26562,-2.269532 1.00977,-3.287109 2.27148,-0.25 1.77149,-3.537109 2.26953,-3.035157 1.26562,-3.03125 c 0.50521,-5.807293 6.82422,-7.324218 6.82422,-7.324218 0,0 1.76563,-0.504554 0,0.755859 -1.77083,1.265627 -6.31836,14.150391 -6.31836,14.150391 l 4.54688,3.787109 c 1.26562,-2.020827 6.31836,-3.787109 6.31836,-3.787109 v -4.550782 l 1.26562,-1.515625 0.75391,-3.28125 v -8.339843 l -0.75391,-1.515625 c -5.8125,-12.630214 6.81771,-13.896485 6.0625,-13.896485 -0.76042,0 -4.04687,8.339844 -4.04687,8.339844 l 1.01562,2.775391 0.25,13.140625 5.55664,7.328125 v 5.558593 l -1.51562,0.503907 -2.77539,7.072265 -3.28711,8.339839 -0.75586,7.07227 -3.79102,7.83399 -0.75976,3.5371 v 1.26563 c 0,1.26041 -11.6211,9.59766 -11.6211,9.59766 l -6.48242,0.37109 c -0.46739,0.45672 -0.96867,0.88341 -1.43359,1.33984 -0.21959,0.57086 -0.65058,1.03134 -1.11133,1.46094 0.0916,0.17029 0.17446,0.34849 0.2207,0.57031 0.022,0.10539 -0.10154,-0.19025 -0.15234,-0.28515 -0.33691,-0.3314 -0.0641,-0.0815 0.36523,0.71484 0.0911,0.16891 0.0948,0.37078 0.14258,0.55664 0.0791,0.30774 0.16431,0.6138 0.22461,0.92578 0.0322,0.16664 0.051,0.3355 0.0723,0.50391 0.74664,1.01873 1.33203,1.92578 1.33203,1.92578 l 1.51562,5.05664 0.75977,5.05273 -0.25391,4.29102 c -1.51562,1.26563 3.03125,12.63672 3.03125,12.63672 l -10.35937,7.83203 -0.79688,-1.29297 c -0.1555,-0.0242 -0.44366,-0.0698 -0.79883,-0.16992 -0.0217,-0.002 -0.0625,0.002 -0.0723,0 -0.45697,-0.11551 -0.59629,-0.17036 -0.75196,-0.26758 -0.0161,0.008 -0.0401,0.0154 -0.0547,0.0234 -0.23516,0.12972 -0.85266,0.33787 -1.2793,0.48242 -0.0445,0.17211 -0.0954,0.34245 -0.17578,0.5 -5.8e-4,0.0419 0.001,0.0834 -0.004,0.12305 -0.001,0.006 0.001,-0.0136 -0.004,-0.0176 -0.006,-0.007 -0.006,-0.004 -0.0117,-0.0117 0.0564,0.20853 0.1218,0.46595 -0.0801,0.61914 -0.0244,0.0186 -0.0551,0.0253 -0.082,0.0391 -0.007,0.0189 -0.0164,0.0359 -0.0234,0.0547 0.025,0.12426 -0.007,0.24768 -0.0684,0.36133 -0.11553,0.45497 -0.6429,1.03525 -1.07031,1.27148 -0.0363,0.0571 -0.0674,0.11544 -0.11133,0.16993 -0.24977,0.31003 -0.30076,0.33114 -0.58398,0.5625 -0.0506,0.0324 -0.0975,0.0523 -0.14649,0.0801 -0.0724,0.098 -0.14005,0.19768 -0.22851,0.29102 -0.006,0.34477 -0.01,0.73872 -0.008,0.90039 -10e-4,0.74516 -0.001,1.49118 0.002,2.23633 -5e-4,0.94104 0.002,1.88842 -0.0215,2.82617 0.0562,0.61983 0.0426,1.2096 -0.0254,1.80274 0.0422,-0.0115 0.11185,0.19667 0.16211,0.27539 0.0679,0.10638 0.10648,0.17354 0.11524,0.21875 0.005,0.005 0.0136,0.0152 0.0195,0.0215 0.0497,0.016 0.0825,0.0377 0.0723,0.0801 0.0106,0.0122 0.0105,0.0178 0.0137,0.0254 0.0681,0.0173 0.10924,0.0283 0.26758,0.0703 0.0771,0.0205 0.10044,0.1237 0.14844,0.1875 0.13768,0.1832 0.23856,0.3241 0.33984,0.47266 l 2.48047,0.18945 v 2.27734 l -0.002,0.002 c 2e-5,0.0216 -2e-5,0.043 0,0.0644 -1e-5,0.0128 6e-5,0.0263 0,0.0391 -3e-5,0.008 0.005,0.0191 0,0.0234 v 0.002 h 0.002 c 0,0.0181 0.001,0.0391 -0.004,0.0566 v 0.002 c 0.01,0.0207 0.0202,0.0437 0.0195,0.0664 -2.3e-4,0.003 -9.2e-4,0.005 -0.002,0.008 0.003,0.003 0.006,0.006 0.008,0.01 10e-4,0.002 0.002,0.007 0.002,0.01 v 0.002 c 0.004,0.001 0.009,0.009 0.0137,0.0117 0.0276,0.0147 0.0567,0.0487 0.0879,0.10156 l 0.006,0.006 c 0.002,0.003 0.003,0.008 0.004,0.0117 0.004,0.007 0.008,0.0173 0.0117,0.0254 0.0182,0.0352 0.0357,0.0606 0.0547,0.10938 0.003,0.004 0.006,0.009 0.008,0.0137 0.007,0.0123 0.0116,0.0245 0.0176,0.0371 l 0.002,0.002 c 6.6e-4,0.002 2.2e-4,0.003 0,0.004 h -0.002 c 0.001,0.004 -8.9e-4,0.004 0,0.008 0.003,0.004 0.005,0.009 0.008,0.0117 -0.002,-0.006 -0.002,-0.0108 -0.004,-0.0156 0.0106,0.0165 0.0212,0.0316 0.0312,0.0488 0.0638,0.0746 0.14553,0.17116 0.1582,0.18945 0.008,0.0117 0.0159,0.0249 0.0234,0.0371 0.2103,0.093 0.41553,0.1978 0.625,0.29297 -0.0241,-0.005 -0.0398,-0.007 -0.0742,-0.0156 0.006,0.003 0.0132,0.009 0.0195,0.0117 0.003,0.003 0.007,0.009 0.0117,0.0117 0.005,9e-4 0.006,-0.001 0.0117,0 0.0176,0.006 0.0432,0.0163 0.0586,0.0274 0.0118,0.009 0.0185,0.022 0.0273,0.0332 1.03939,0.32382 2.19998,0.74212 2.81055,1.66211 0.13604,0.0615 0.26947,0.13541 0.40429,0.20117 0.23343,0.0346 0.53839,0.0877 0.66211,0.23633 0.0372,0.0447 0.0639,0.0973 0.0977,0.14453 l 0.002,0.002 0.0117,0.006 c 0.009,-5.8e-4 0.0199,-7.7e-4 0,-0.0117 0.0229,-0.001 0.0474,-0.008 0.0703,-0.006 0.0435,0.005 0.0831,0.0167 0.11719,0.0332 0.0105,0.005 0.0149,0.0127 0.0215,0.0195 -0.004,-5.5e-4 -0.01,-8.3e-4 -0.01,0 0.003,0.002 0.009,0.002 0.0117,0.004 h 0.002 c 0.003,0.002 0.009,0.007 0.0117,0.01 0.004,0.002 0.007,0.0107 0.0117,0.0117 0.009,0.002 0.0181,0.002 0.0273,0.004 h 0.002 c 0.31062,0.0253 0.62111,0.0509 0.93164,0.0762 0.0635,-0.015 0.12676,-0.0316 0.1914,-0.041 0.0855,-0.0125 0.17172,-0.0135 0.25782,-0.0195 0.0916,-0.0133 0.18379,-0.0277 0.27539,-0.041 0.1009,-0.0167 0.25473,-0.14478 0.30273,-0.0547 0.002,0.004 0.006,0.009 0.008,0.0137 0.017,-0.003 0.0243,-0.005 0.043,-0.008 0.35914,-0.0602 0.13859,-0.0304 0.57227,-0.0742 0.0446,0.003 0.0892,-0.001 0.13281,0.01 0.009,0.002 -0.0344,0.0157 -0.0254,0.0137 0.13059,-0.0228 0.58713,-0.17866 0.66992,-0.12696 0.0114,0.007 0.0189,0.019 0.0293,0.0274 -0.0333,-0.0269 -0.0819,0.0246 -0.13281,0.0879 0.0277,0.005 0.0626,0.01 0.0957,0.0195 h 0.002 c 0.01,-0.0332 0.0267,-0.0594 0.0605,-0.0723 -0.002,-0.004 -0.006,-0.009 -0.008,-0.0137 l -0.002,-0.002 c -0.006,-0.005 -0.0112,-0.0123 -0.0176,-0.0176 0.005,0.004 0.0116,-0.002 0.0156,0.006 0.002,0.004 0.002,0.009 0.004,0.0137 0.005,0.004 0.009,0.0119 0.0137,0.0156 0.10594,-0.0368 0.25656,-0.0392 0.41797,-0.0547 0.28765,-0.0275 0.35499,-0.0422 0.59765,-0.082 -1.8e-4,-0.003 1.9e-4,-0.007 0,-0.01 -5e-4,-0.007 0.0145,1e-5 0.0215,0 h 0.0293 0.0879 0.2793 c 0.0813,0 0.1939,-0.0522 0.26758,-0.0391 0.0231,0.004 0.0412,0.0165 0.0547,0.0371 0.0228,-9.9e-4 0.0339,-0.009 0.0586,-0.0117 0.0122,-0.0235 0.0437,-0.0271 0.0918,-0.0117 h 0.006 c 0.0384,-0.006 0.0993,-0.0113 0.10937,-0.0117 0.002,-7e-5 0.0213,-0.002 0.0215,-0.002 0.002,-1.5e-4 0.006,8e-5 0.008,0 0.009,-4.7e-4 0.0142,-0.004 0.0293,-0.004 v 0.004 h 0.002 0.0859 0.10937 c 0.0252,0 0.0662,-0.0239 0.0742,0 0.002,0.006 -0.003,0.0153 -0.002,0.0215 0.007,-0.01 0.0106,-0.0234 0.0273,-0.0234 9.7e-4,0 -0.004,0.0174 -0.004,0.0195 0.008,-0.006 0.009,-0.022 0.0234,-0.0176 h 0.44922 v -0.004 c 0.009,0 0.0126,0.007 0.0215,0.008 h 0.002 c 0.0537,-0.0107 0.10054,-0.0108 0.11719,0.0312 h 0.0234 c 0.14677,-0.193 0.33202,-0.43747 0.33203,-0.4375 l 6.31836,0.25586 c 0.51317,1.2437 2.15371,2.73729 4.22266,4.23437 0.77402,0.0428 1.65133,0.13454 2.27539,0.3418 0.14281,-6.2e-4 0.28481,0.004 0.42188,0.0391 0.11054,0.0286 0.24676,0.14938 0.36132,0.26953 0.29151,-0.0439 0.63899,-0.003 1.07032,0.12696 0.0718,-0.002 0.14346,-1.7e-4 0.21484,0 0.45901,-0.067 0.85412,-0.17275 1.18164,0.24218 0.53893,0.0654 1.12088,0.17225 1.51367,0.34375 0.002,2.9e-4 0.01,0.002 0.0117,0.002 0.60239,0.12176 1.01122,0.19973 1.5293,0.36523 0.11151,-0.0467 0.28048,0.0164 0.61523,0.11914 0.082,0.0229 0.1535,0.0599 0.21875,0.10352 0.0195,-0.0343 0.029,-0.0719 0.0508,-0.10547 0.48068,-0.74109 1.79151,0.11218 2.49024,0.85547 2.53483,0.50536 4.87121,1.18415 7.08789,2.68164 v -0.002 c 0.0122,0.008 0.0211,0.0171 0.0332,0.0254 2.3828,-0.48262 4.49414,-0.79882 4.49414,-0.79882 4.80208,1.26043 7.07813,8.95313 7.07813,8.95312 l 2.66797,8.55664 0.10156,0.60547 c 0.1209,0.12142 0.23648,0.24776 0.35937,0.36719 0.0287,0.0279 0.0586,0.0546 0.0879,0.082 0.0608,0.024 0.14104,0.0969 0.2168,0.17187 0.0115,-0.006 0.0261,-0.0198 0.0371,-0.0254 0.23643,-0.12043 0.45473,0.27505 0.66602,0.43555 0.25419,0.1931 0.45396,0.39641 0.63281,0.61328 0.6056,0.31506 0.3396,0.2591 0.96875,0.41406 0.17343,0.0494 0.34299,0.12089 0.52148,0.14649 0.18866,0.0266 0.37974,0.009 0.57032,0.0117 0.42954,0.0482 0.86228,0.076 1.28906,0.14453 0.94559,0.15167 1.85502,0.43767 2.81055,0.51367 0.4951,-0.10151 1.00603,-0.21602 1.51757,-0.16992 0.39349,0.0355 0.77704,0.13617 1.16797,0.19336 0.40506,0.0592 0.81264,0.1028 1.21875,0.1543 1.78458,0.21949 3.5727,1.9e-4 5.35742,-0.0254 0.34044,0.0104 0.68103,0.008 1.02149,0.0117 0.37141,-0.12944 1.34821,-0.47098 1.45508,-0.66601 0.7072,-0.70607 1.69952,-0.90518 2.57031,-1.32031 0.36284,-0.17298 0.71086,-0.375 1.06641,-0.5625 0.76129,-0.41564 1.00423,-0.54623 1.30273,-0.73438 0.0658,-0.0982 0.14508,-0.16223 0.24414,-0.16016 0.0536,-0.036 0.0863,-0.0542 0.15234,-0.0996 0.0451,0.0477 0.0888,0.10031 0.13282,0.15039 0.0498,-0.0487 -0.0131,0.01 0.0742,-0.0742 0.0665,-0.064 0.13272,-0.12824 0.19922,-0.19141 -1.7e-4,-0.0833 -0.007,-0.12989 -0.006,-0.23633 7e-4,-0.0844 0.12878,-0.10885 0.20118,-0.15234 0.28068,-0.16872 0.58553,-0.30497 0.90429,-0.38477 0.0949,-0.0238 0.19334,-0.0265 0.29102,-0.0352 0.58948,-0.45846 1.34401,-0.92606 1.80078,-1.24414 0.37161,-0.25879 0.71707,-0.55334 1.09375,-0.80469 0.67522,-0.45055 1.36597,-0.8084 2.07617,-1.19336 1.20776,-0.6575 2.25353,-1.55912 3.3125,-2.42774 0.71324,-0.56834 0.68617,-0.79645 1.39258,-1.44921 0.3344,-0.309 0.69807,-0.58632 1.04687,-0.87891 0.742,-0.55311 1.42754,-1.19167 1.92969,-1.97656 0.0745,-0.11638 0.10607,-0.25572 0.17578,-0.375 0.40127,-0.68785 0.44719,-0.69442 0.94532,-1.29297 0.8003,-0.80385 1.76764,-1.42626 2.39648,-2.38281 0.46126,-0.62354 1.09333,-1.05705 1.67578,-1.54883 0.25076,-0.21173 0.45999,-0.47015 0.71094,-0.68164 0.21969,-0.18516 0.45689,-0.34556 0.68555,-0.51953 0.5119,-0.47176 1.14374,-0.85556 1.66796,-1.30469 0.0736,-0.063 0.10243,-0.16576 0.16993,-0.23438 0.12518,-0.12871 0.30295,-0.27412 0.4707,-0.42187 0.0199,-0.0328 0.0206,-0.0537 0.0625,-0.11914 0.0268,-0.0423 0.0535,-0.0854 0.084,-0.125 0.007,-0.009 0.0214,-0.007 0.0254,-0.0176 0.0539,-0.12517 0.0619,-0.26683 0.13086,-0.38672 0.1003,-0.19981 0.12294,-0.24928 0.23047,-0.44531 0.0803,-0.14644 0.1838,-0.29311 0.25,-0.44727 0.0201,-0.0467 0.0357,-0.0946 0.0527,-0.14258 0.0333,-0.10813 0.0586,-0.21873 0.0996,-0.32421 0.0648,-0.16687 0.24024,-0.49429 0.38867,-0.66993 -3e-4,-0.0151 1e-4,-0.0544 0.0625,-0.28711 0.0311,-0.11595 0.0727,-0.22883 0.10742,-0.34375 0.0312,-0.10346 0.0594,-0.20761 0.0918,-0.31054 -0.0642,-0.26364 0.1761,-0.63251 0.26172,-0.80274 0.0719,-0.14227 0.14334,-0.28647 0.21484,-0.42968 0.001,-0.001 0.003,-0.009 0.006,-0.01 l -0.26758,-2.16016 3.87695,-6.23437 c 0.13752,-0.42569 0.28331,-0.84873 0.42383,-1.27344 0.11457,-0.42878 -0.0888,-1.21683 0.33008,-1.30078 -0.01,-0.003 -0.0196,-0.008 -0.0293,-0.0117 -0.0946,-0.0338 -0.0334,-0.15251 0.0293,-0.27148 0.0111,-0.0554 0.0492,-0.12411 0.0801,-0.1836 0.0894,-0.3585 0.17617,-0.7182 0.26758,-1.07617 0.16101,-0.63043 0.23906,-1.0133 0.34961,-1.25976 -0.0119,-0.14668 0.003,-0.34757 0.0293,-0.66211 0.009,-0.0477 0.0369,-0.19359 0.0527,-0.2793 0.11562,0.0464 0.38509,0.15614 0.57617,0.23242 0.0599,-0.0975 0.0793,-0.17091 -0.11133,-0.11914 0.009,-0.0413 0.004,-0.0239 0.0117,-0.0586 -0.16032,-0.0418 -0.40127,-0.10664 -0.46289,-0.1211 0.0802,-0.43078 0.19602,-1.02527 0.27734,-1.19726 -0.006,-0.1765 -0.006,-0.35253 0.0156,-0.52735 0.051,-0.40633 0.22039,-0.52376 0.37109,-0.83984 0.12465,-0.26147 0.22012,-0.53781 0.35352,-0.79492 0.64151,-1.23626 -0.0608,0.51478 0.55664,-1.16992 0.0396,-0.0911 0.10914,-0.17454 0.11914,-0.27344 0.0224,-0.22478 -0.19368,-0.52517 -0.0234,-0.67774 0.0849,-0.0778 0.17817,-0.14564 0.27539,-0.20898 0.0116,-0.0357 0.0294,-0.0718 0.0469,-0.10938 l 0.22656,-2.38085 c 0.63211,-3.5316 3.31636,-6.83434 5.7207,-9.19336 0.0254,-0.0635 0.0515,-0.12668 0.0781,-0.18946 0.16211,-0.38188 0.31821,-0.76597 0.49218,-1.14257 0.0641,-0.13867 0.10691,-0.23061 0.15821,-0.3418 -0.005,-0.9517 1.04684,-2.58374 1.26562,-2.88086 6.1e-4,0.0136 5.7e-4,0.0383 -0.002,0.0606 0.008,-0.0127 0.0124,-0.0273 0.0215,-0.0391 0.009,-0.011 0.016,-0.0196 0.0254,-0.0293 8.5e-4,-0.002 0.005,-0.01 0.006,-0.0117 v -0.002 c 0.003,-0.008 0.008,-0.014 0.0117,-0.0215 0.002,-0.004 0.008,-0.006 0.01,-0.01 0.015,-0.0254 0.0306,-0.0505 0.041,-0.0781 0.002,-0.005 -0.003,-0.01 0,-0.0137 v -0.002 h 0.002 c 0.002,0.001 0.003,0.003 0.006,0.004 3e-5,-0.005 -3e-5,-0.009 0,-0.0137 -0.002,0 -0.003,0.003 -0.004,0.004 0.004,-0.011 0.008,-0.0221 0.0117,-0.0332 4.7e-4,-0.0695 -7.6e-4,-0.13965 0.0117,-0.20703 0.0266,-0.14177 0.43419,-0.78888 0.49219,-0.83398 0.005,-0.004 0.005,0.003 0.008,0.002 0.008,-0.0147 0.0157,-0.0293 0.0254,-0.043 0.006,-0.01 0.0126,-0.0189 0.0176,-0.0293 0.003,-0.008 0.008,-0.0174 0.0117,-0.0254 0.0122,-0.0267 0.0282,-0.0455 0.0547,-0.0586 l 0.0117,-0.002 0.002,-0.002 c 0.0108,-0.007 0.0179,-0.0168 0.0254,-0.0254 0.0126,-0.0273 0.0247,-0.0547 0.0371,-0.082 -0.0125,0.0151 -0.0271,0.0241 -0.0391,0.041 0.0241,-0.072 0.0763,-0.17593 0.16797,-0.32617 0.0143,-0.0313 0.0287,-0.0626 0.043,-0.0938 0.003,0.002 0.008,0.002 0.0117,0.004 0.1036,-0.16486 0.17164,-0.27272 0.24805,-0.39258 0.0164,-0.0391 0.0253,-0.0712 0.0449,-0.11328 0.0203,-0.0434 0.0641,-0.10319 0.0957,-0.1582 0.0168,-0.16521 0.0284,-0.29615 0.0508,-0.54883 0.0205,-0.043 0.11621,-0.23043 0.20508,-0.40039 -0.005,-0.0196 -0.007,-0.0462 -0.0117,-0.0625 0.0277,-0.025 0.0576,-0.0473 0.084,-0.0742 0.1424,-0.26536 0.30887,-0.56206 0.43554,-0.74609 -0.007,-0.0248 -0.009,-0.055 -0.0176,-0.0781 0.29777,-0.56144 0.26587,-1.57819 0.89258,-1.68359 0.0549,-0.009 0.10042,-0.008 0.15235,-0.0137 l 1.78711,-11.91016 c 1.21851,-3.41129 2.86939,-3.71404 4.19726,-3.19531 0.44716,-0.49598 0.90181,-0.88361 1.32617,-1.09766 -0.10721,0.40024 -0.0957,0.36146 -0.11718,0.44531 0.0164,-0.0227 0.0324,-0.0457 0.0488,-0.0684 0.24656,-0.72584 0.95082,-2.73867 1.55079,-2.7168 0.37432,0.0137 0.74997,0.0473 1.125,0.0879 v -0.38867 l 23.90039,-23.42578 c 4.30207,2.15104 76.98046,-27.970708 76.98046,-27.970708 18.16666,-4.781239 66.69141,-63.586585 66.69141,-63.826171 0,-0.239586 9.5625,-35.855469 9.5625,-35.855469 0.51118,1.638517 2.68248,1.946226 4.92578,1.77539 -0.15251,-0.665364 -0.29153,-1.345007 -0.39062,-2.03125 -0.0839,-0.06884 -0.1718,-0.133012 -0.25196,-0.207031 -0.88316,-0.815469 -1.2106,-4.564638 -1.33007,-5.46289 -0.15485,-1.164065 -1.38684,-2.821016 -0.50391,-3.521485 -0.0939,-0.175107 -0.19001,-0.34917 -0.28516,-0.521484 -0.022,-0.03976 -0.0453,-0.133119 0,-0.136719 0.006,-4.84e-4 0.0115,4.8e-4 0.0176,0 -5.4e-4,-0.0026 0.001,-0.0052 -0.002,-0.0078 -0.008,1.26e-4 -0.008,-1.27e-4 -0.0156,0 v -0.08008 -1.101562 c -0.0382,-0.0064 -0.0379,-0.01071 0,-0.01172 v -2.128906 c 0,-0.596247 0.13328,-1.057242 0.33594,-1.398437 v -6.144532 c 0,-0.871477 0.1099,-1.63039 0.27734,-2.316406 -0.15725,-0.680035 -0.30927,-1.367587 -0.47265,-2.066406 -1.26551,-2.406904 -2.50838,-4.765381 -3.25,-7.322266 -0.24394,-0.100498 -0.73048,-0.30664 -0.73047,-0.30664 -0.47396,-14.343751 -12.42773,-16.972657 -12.42774,-16.972657 l 0.7129,-2.390625 c 5.02084,-1.432292 6.93359,1.910157 6.93359,1.910156 l 3.00586,-0.115234 c -0.27483,-0.289886 -0.76499,-0.723788 -0.70313,-0.892578 -0.15772,-0.09452 -0.26585,-0.180616 -0.22461,-0.234375 -1.80837,-1.616698 -3.1759,-3.615402 -4.7207,-5.472656 -0.53531,-0.643509 -1.11671,-1.248692 -1.64453,-1.898438 -0.43495,-0.535411 -0.82635,-1.102443 -1.24023,-1.654297 -0.12882,-0.171758 -0.23444,-0.340364 -0.34766,-0.509765 l -11.09375,-1.410157 -11,-10.28125 c -6.9323,-9.802092 -15.77733,-10.994142 -15.77734,-10.994142 l -12.90625,-0.24023 -0.47852,5.255857 c -7.31726,6.805715 -12.43796,5.017326 -14.79102,3.419922 -0.32963,0.0097 -0.65975,0.02385 -0.98632,-0.01367 -0.0412,-0.0047 0.0768,-0.03141 0.11523,-0.04687 -0.80533,0.123531 -1.62024,0.04131 -2.43164,0.0098 0.15901,-0.262975 0.36057,-0.510333 0.55859,-0.759766 -0.0797,-0.01753 -0.12973,-0.04559 -0.084,-0.113281 0.0252,-0.03627 0.0619,-0.05709 0.0918,-0.08789 -0.14424,0.06911 -0.29286,0.139265 -0.46094,0.203125 -0.0617,0.02345 -0.12615,0.01592 -0.19141,0 -0.024,0.309121 -0.0604,0.614104 -0.1582,0.898437 -0.0522,0.151632 -0.32044,-0.02773 -0.47852,-0.05469 -0.74068,-0.12633 -0.74538,-0.145321 -1.39453,-0.337891 -0.50344,-0.102075 -1.01592,-0.220424 -1.52343,-0.349609 -0.96555,0.558962 -1.69532,1.060547 -1.69532,1.060547 L 337,-92.271484 c -2.09357,-0.806572 -7.35699,-3.822169 -10.6582,-5.75586 -0.046,0.04967 -0.0909,0.100959 -0.14258,0.144532 -0.18718,0.157775 -0.48883,-0.04938 -0.73242,-0.07422 -0.33355,-0.108619 -0.65755,-0.24492 -0.99414,-0.34375 -0.39645,-0.116415 -0.8044,-0.192575 -1.19922,-0.314453 -0.26252,-0.08104 -0.61739,-0.07175 -0.82032,-0.230469 -0.69449,-0.101114 -1.43849,-0.380639 -1.68554,-0.494141 -0.24147,-0.11094 -0.46641,-0.252982 -0.69531,-0.388672 -0.13846,-0.02691 -0.29366,-0.05625 -0.25,-0.138672 -0.0323,-0.01874 -0.067,-0.03652 -0.0996,-0.05469 h -0.41407 l -1.19336,0.712891 -5.26171,0.478515 -1.66993,-0.957031 c -11.23438,-1.67188 -11.47461,-11.70898 -11.47461,-11.70898 4.06249,-7.65105 -3.3496,-8.13086 -3.3496,-8.13086 l -1.43165,1.19922 -2.9082,-2.35547 c -0.88344,-0.0229 -1.84638,-0.14982 -2.88672,-0.41016 -0.73627,-0.18406 -1.49695,-0.29565 -2.21093,-0.55273 -0.95743,-0.34471 -1.85952,-0.81915 -2.78321,-1.2461 -0.23313,-0.10776 -0.4628,-0.22851 -0.6914,-0.3457 l -0.0117,0.002 c -0.0483,-0.0241 -0.0673,-0.0356 -0.11328,-0.0586 -0.0997,-0.0511 -0.20063,-0.10031 -0.30079,-0.15039 -0.092,-0.046 -0.32139,-0.0447 -0.27539,-0.13672 2.6e-4,-0.003 0.0107,-0.005 0.0117,-0.008 -0.64689,-0.33627 -0.91613,-0.56501 -0.89453,-0.8711 -0.62925,-0.23832 -1.24358,-0.52443 -1.82812,-0.85937 -0.22357,0.0354 -0.50291,-0.004 -0.82227,-0.16407 -0.1994,-0.0997 -0.40021,-0.19912 -0.59961,-0.29882 -0.062,-0.031 -0.1235,-0.0633 -0.18555,-0.0937 h -0.0117 c -0.0558,-0.007 -0.16319,-0.021 -0.14844,-0.0742 -0.0125,-0.006 -0.0246,-0.0133 -0.0371,-0.0195 -0.0249,-0.0125 -0.0873,-0.0125 -0.0742,-0.0371 0.0111,-0.0208 0.0219,-0.0418 0.0332,-0.0625 -0.13877,-0.0527 -0.27143,-0.0923 -0.41797,-0.15821 H 277.5 c -0.0125,0 -0.0267,0.007 -0.0371,0 -0.25013,-0.16419 -0.39063,-0.29078 -0.49609,-0.39257 -0.0267,-0.005 -0.1501,-0.0243 -0.20703,-0.0371 2.4e-4,0.008 -5.1e-4,0.007 0,0.0176 -0.006,-0.008 -0.0138,-0.0141 -0.0195,-0.0215 -0.0565,-0.0127 -0.0655,-0.007 -0.18945,-0.0332 -0.19367,-0.0412 -0.30866,-0.0813 -0.01,-0.17188 -0.082,-0.0476 -0.17321,-0.10216 -0.25586,-0.15039 -0.0332,0.0146 -0.0647,0.0314 -0.10352,0.0391 0.008,-0.0309 0.0146,-0.0623 0.0195,-0.0937 -0.10762,-0.0634 -0.20851,-0.12058 -0.32617,-0.19335 -0.0245,0.0631 -0.0408,0.12858 -0.0664,0.1914 -0.0101,0.0248 -0.0288,0.0343 -0.041,0.0547 0.0183,0.0262 0.0442,0.0557 0.0566,0.0781 0.12778,-3.2e-4 0.24314,-0.0172 0.35547,-0.0371 -0.003,0.0115 -0.007,0.0237 -0.01,0.0352 -0.0334,0.1151 -0.23365,0.0528 -0.35156,0.0742 -0.0156,0.003 0.0242,-0.0305 0.0176,-0.0449 -0.003,-0.007 -0.0151,-0.0193 -0.0195,-0.0273 -0.0405,1.2e-4 -0.0766,0.01 -0.11719,0.01 -0.3356,0.3094 -1.10993,-0.35961 -1.68555,-0.86914 -1.36791,-0.58829 -2.95144,-1.26662 -3.19726,-1.37305 -0.41738,-0.17286 -0.24362,-0.0953 -0.53711,-0.21289 h -0.002 c -0.0504,-0.0116 -0.11014,6.5e-4 -0.15234,-0.0312 -0.0218,-0.0154 -0.0399,-0.0359 -0.0605,-0.0527 -0.70879,-0.27979 -1.5623,-0.62379 -1.5332,-0.61524 h -0.002 -0.002 -0.002 -0.002 -0.002 -0.002 -0.002 -0.002 -0.002 -0.002 c 0.002,0.0936 0.0141,0.18782 0.0117,0.28125 -0.0123,0.47266 -1.23632,-0.17421 -1.35938,-0.66601 -1.33025,0.0749 -3.13748,-0.81373 -4.56836,-2.13477 -1.60611,-0.65291 -3.25306,-1.48285 -4.41601,-2.53906 -0.25958,-0.0881 -0.52401,-0.16318 -0.77735,-0.26758 -0.13631,-0.056 -0.53647,-0.47924 -0.96679,-0.95898 -0.70386,-0.27026 -1.37769,-0.59484 -2.01367,-0.92969 -0.0191,-0.0115 -0.0302,-0.01 -0.0508,-0.0234 -0.0125,-0.008 -0.0246,-0.0171 -0.0371,-0.0254 -0.53539,-0.28445 -1.05113,-0.57531 -1.50976,-0.8457 -1.38481,-0.1434 -1.58507,-0.33976 -3.16602,-1.8125 -1.27804,-0.38895 -2.35916,-1.08485 -3.63086,-2.32813 -0.0241,-0.002 -0.0482,-0.005 -0.0723,-0.008 -1.50061,-0.15054 -1.95782,-0.70364 -2.14844,-1.54492 -0.11406,-0.0408 -0.22955,-0.0856 -0.35352,-0.16797 -0.15921,-0.10605 -0.32242,-0.20725 -0.47851,-0.31836 -0.37133,-0.2643 -0.73665,-0.5576 -1.07227,-0.86523 -0.18776,-0.17218 -0.19528,-0.26969 -0.17968,-0.1543 -0.23984,-0.1243 -0.41025,-0.33401 -0.61524,-0.5 -0.0147,-0.0119 -0.0345,-0.0159 -0.0508,-0.0254 0.0306,0.0766 0.0522,0.15534 0.0606,0.23828 0.0127,0.13314 -0.23662,-0.12498 -0.34375,-0.20508 -0.58793,-0.4394 -0.99463,-0.77192 -1.39453,-1.125 -0.46696,0.51994 -1.63637,-0.66292 -2.72266,-2.13476 -0.0743,-0.0122 -0.10991,-0.0759 -0.12695,-0.16211 -0.003,-0.005 -0.008,-0.009 -0.0117,-0.0137 -0.0318,-0.0166 -0.0638,-0.0342 -0.0957,-0.0508 -0.007,0.0145 -0.0137,0.0302 -0.0234,0.041 -0.0438,0.0484 -0.1146,-0.049 -0.17188,-0.0918 -0.30201,-0.0565 -0.62511,-0.13329 -1.01172,-0.25586 -0.0677,-0.0215 0.13941,0.029 0.20899,0.043 -0.11465,-0.1547 -0.2291,-0.31014 -0.34375,-0.46484 0.0401,0.009 0.0807,0.0138 0.12109,0.0215 -0.0643,-0.0538 -0.11809,-0.12057 -0.17773,-0.18164 -0.10863,-0.0613 -0.14013,-0.0797 -0.19141,-0.10742 -0.19712,0.0366 -0.42178,0.0222 -0.61719,0.0625 -0.65409,-0.25998 -1.34623,-0.45632 -2.03711,-0.6543 -0.0212,-0.003 -0.0396,-0.005 -0.0566,-0.0137 -0.55944,-0.16051 -1.11557,-0.32722 -1.65039,-0.5293 -0.46245,0.20663 -0.86266,0.25865 -0.70703,-0.30468 -0.1716,-0.0822 -0.34241,-0.16565 -0.50586,-0.26172 0.0237,-0.0469 0.0454,-0.0851 0.0703,-0.13477 -0.12393,-0.0482 -0.25339,-0.10277 -0.38476,-0.16601 -0.007,0.0219 -0.0181,0.0508 -0.0254,0.0723 0.11208,0.0774 0.22096,0.15939 0.33789,0.22852 -1.0112,2.00442 -0.91013,1.44342 -0.3418,-0.22852 -0.12215,-0.0844 -0.24776,-0.16227 -0.36328,-0.25781 -0.0133,-0.011 -0.0241,-0.0239 -0.0371,-0.0352 -0.27315,-0.15565 -0.56436,-0.3385 -0.90429,-0.57422 -0.47206,-0.32696 -1.52725,-0.57993 -1.31446,-1.11328 0.25253,-0.63298 0.54741,-1.2448 0.86133,-1.84765 -6.1e-4,-0.006 0.001,-0.0138 -0.004,-0.0195 -0.0297,-0.27735 -0.0428,-0.56561 -0.0391,-0.85547 l -2.75,0.18359 z m 15.7832,15.48047 c 0.0394,0.0397 0.0873,0.0669 0.12891,0.10352 7e-4,-0.0132 -0.002,-0.022 0,-0.0371 -0.0536,-0.0238 -0.0852,-0.0442 -0.12891,-0.0664 z m 0.12891,0.0664 c 0.0262,0.0116 0.0324,0.0144 0.0645,0.0293 0.005,-0.0114 0.007,-0.0195 0.0117,-0.0312 -0.01,-0.0103 -0.0207,-0.02 -0.0312,-0.0293 -0.0136,-0.003 -0.0275,-0.005 -0.041,-0.008 -5.3e-4,0.012 -0.002,0.0248 -0.004,0.0391 z m 0.0762,-0.002 c 0.0218,0.0228 0.0467,0.0429 0.0703,0.0645 0.003,-0.003 0.007,-0.005 0.01,-0.008 -4.3e-4,-0.0208 -0.002,-0.0417 -0.002,-0.0625 -0.0223,-0.004 -0.0443,-0.009 -0.0664,-0.0137 -0.003,0.006 -0.01,0.0145 -0.0117,0.0195 z m 0.0801,0.0566 c 1.1e-4,0.005 -1.1e-4,0.0104 0,0.0156 -0.004,-0.002 -0.002,0.001 -0.006,-0.002 0.12954,0.11676 0.2754,0.21039 0.42774,0.22851 -0.0951,-0.0555 -0.17152,-0.13816 -0.24414,-0.22461 -0.0119,-0.002 -0.0243,0.01 -0.0273,0.004 -0.004,-0.0129 -0.007,-0.0262 -0.0117,-0.0391 -0.007,-0.009 -0.0109,-0.012 -0.0156,-0.0176 -0.0265,-0.005 -0.0517,-0.0126 -0.0781,-0.0176 -0.017,0.0205 -0.0344,0.0432 -0.0449,0.0527 z m 0.13867,-0.0176 c 0.0145,0.0176 0.0195,0.0234 0.0293,0.0351 0.002,-0.002 0.002,-0.004 0.004,-0.006 -0.0123,-0.0146 -0.0251,-0.028 -0.0371,-0.043 0.002,0.004 0.002,0.009 0.004,0.0137 z m 0.28321,0.25976 c 0.085,0.0496 0.18658,0.0757 0.30273,0.0801 -0.0659,-0.0244 -0.13093,-0.0463 -0.19141,-0.0781 -0.0369,0.005 -0.0739,0.002 -0.11132,-0.002 z m 0.30273,0.0801 c 0.0276,0.0102 0.0523,0.0235 0.0801,0.0332 0.0117,-0.006 0.0237,-0.009 0.0351,-0.0156 0.008,-0.005 0.015,-0.009 0.0234,-0.0137 -0.052,0.007 -0.0929,-0.002 -0.13867,-0.004 z m 0.11523,0.0176 c -0.006,-0.001 0.0393,0.0384 0.0625,0.0527 0.0127,0.008 0.0199,0.009 0.041,0.0176 -0.0338,-0.0242 -0.0682,-0.0484 -0.10352,-0.0703 z m -0.0351,0.0156 c -0.0721,0.0381 -0.14114,0.0647 -0.21289,0.0977 0.33302,0.13485 0.69875,0.21325 1.08594,0.24023 -0.0772,-0.0349 -0.15378,-0.0713 -0.23047,-0.10742 h -0.002 l -0.002,-0.002 c -0.0337,-0.0159 -0.0682,-0.0303 -0.10156,-0.0469 -0.0631,-0.0312 -0.16301,-0.0456 -0.22656,-0.0781 -0.0338,-3.2e-4 -0.0679,0.002 -0.10157,0 -0.0215,-0.0148 -0.0439,-0.0297 -0.0644,-0.0449 -0.0483,-0.0178 -0.0946,-0.0412 -0.14453,-0.0586 z m -0.81055,-0.34179 c -0.002,-0.002 -0.002,-0.004 -0.004,-0.006 l -0.002,0.002 c 0.004,0.002 0.002,0.002 0.006,0.004 z m 1.87305,0.49609 c -0.002,0.013 -0.002,0.0261 -0.004,0.0391 0.0412,-0.011 0.0604,-0.0243 0.0137,-0.0371 -0.003,-8.7e-4 -0.007,0.001 -0.01,-0.002 z m 0.81055,0.25781 c 0.003,0.001 0.005,0.002 0.008,0.004 0.002,-0.001 0.002,-0.003 0.004,-0.004 -0.004,-4e-5 -0.008,4e-5 -0.0117,0 z m 0.2832,0.15039 c 0.54622,0.26649 1.1069,0.44834 1.47656,0.55078 -0.007,-0.0194 -0.0161,-0.0293 -0.0176,-0.0645 -0.12074,-0.0233 -0.32121,-0.0899 -0.45117,-0.1875 -0.0892,0.0105 -0.16098,-0.0332 -0.20898,-0.13281 -0.0406,-0.0199 -0.0808,-0.0405 -0.1211,-0.0606 -0.0541,-0.0358 -0.15258,-0.0472 -0.16406,-0.10547 -0.12342,-4.6e-4 -0.24774,-0.001 -0.37109,0.002 -0.0107,1.5e-4 -0.10392,-0.002 -0.14258,-0.002 z m 1.45898,0.48633 c 0.0186,0.004 0.0559,0.0159 0.0684,0.0176 0.0242,0.003 0.0482,-0.008 0.0723,-0.0117 -0.0484,-0.0199 -0.0944,-0.0439 -0.14258,-0.0644 0.002,0.0171 -0.001,0.0397 0.002,0.0586 z m 0.19727,0.0312 c -0.0152,0.0171 -0.0387,0.0332 -0.0625,0.0527 0.0501,0.005 0.10168,0.009 0.16601,0.002 -0.001,-0.001 -0.0162,-0.0144 -0.0176,-0.0156 -0.0293,-0.0117 -0.0567,-0.0272 -0.0859,-0.0391 z m 13.86719,9.32227 c 0.0699,0.0334 0.13079,0.072 0.21289,0.0977 -0.0115,-0.0164 -0.0237,-0.0323 -0.0352,-0.0488 -0.057,-0.0111 -0.1171,-0.0307 -0.17773,-0.0488 z m 6.47851,3.5625 c 0.003,0.0394 0.007,0.0771 0.008,0.11328 0.16367,-0.001 0.33173,-0.009 0.51172,-0.0371 -0.003,-0.004 -0.007,-0.008 -0.01,-0.0117 -0.14497,0.0132 -0.31529,-0.006 -0.50977,-0.0645 z m 12.375,6.83984 c -0.0262,0.0546 -0.0575,0.10663 -0.082,0.16211 -0.024,0.0542 -0.01,0.11413 -0.004,0.17578 0.02,-10e-4 0.0427,0.004 0.0625,0.002 0.0746,-0.081 0.15404,-0.15857 0.23047,-0.23828 -0.0753,-0.0318 -0.15845,-0.0752 -0.20703,-0.10156 z m 1.25195,0.59766 c 0.002,0.0416 0.009,0.0834 0.01,0.125 0.0505,0.0169 0.47545,0.14499 0.97266,0.25976 -0.0442,-0.034 -0.0885,-0.0676 -0.13282,-0.10156 -0.0208,-0.006 -0.0715,-0.0393 -0.0625,-0.0195 0.0131,0.0293 0.11152,0.0681 0.0781,0.0566 -0.12382,-0.0475 -0.27542,-0.067 -0.36524,-0.16016 -0.17298,-0.0391 -0.33636,-0.10094 -0.5,-0.16015 z m 1.06446,0.32031 c 0.0476,0.0626 0.051,0.0633 0.082,0.10156 0.017,0.004 0.0374,0.006 0.0547,0.01 -0.0451,-0.0377 -0.0862,-0.0808 -0.13672,-0.11133 z m 11.64258,0.45312 -0.0234,0.0137 c 0.005,0.003 0.009,0.005 0.0137,0.008 0.003,-0.007 0.007,-0.0143 0.01,-0.0215 z m -1.78711,1.14844 c -0.0579,0.0123 -0.11596,0.0225 -0.17383,0.0352 0.0754,0.0452 0.13849,0.0533 0.17383,-0.0352 z m 2.6289,2.21289 c -0.0478,0.0125 -0.0974,0.0249 -0.14843,0.0391 0.10515,0.0459 0.21121,0.0953 0.31835,0.13868 -0.0554,-0.0625 -0.11444,-0.11746 -0.16992,-0.17774 z m 37.71485,26.158205 c 0.013,0.0044 0.0252,0.01058 0.0391,0.01367 0.003,-0.0047 0.006,-0.0091 0.01,-0.01367 z m 1.99804,0.517578 c 0.008,0.09699 0.0159,0.194028 0.0234,0.291016 0.002,0.0054 0.004,0.01023 0.006,0.01563 -4.8e-4,-0.09996 -0.0208,-0.204661 -0.0293,-0.306641 z m 111.40235,78.183594 c -0.0444,0.08519 -0.0657,0.168742 -0.0254,0.228515 0.005,-0.07803 0.0184,-0.151401 0.0254,-0.228515 z M 121.28711,132.66602 c 0.0649,0.12781 0.0631,0.12125 0.14844,0.28906 10e-4,-0.002 0.003,-0.004 0.004,-0.006 0.0532,-0.0807 0.11067,-0.15879 0.16602,-0.23828 -0.11326,-0.0212 -0.21272,-0.03 -0.31836,-0.0449 z m 128.82422,1.70898 c -0.033,-0.037 -0.47365,0.57991 -0.75391,1.23438 0.0753,-0.1091 0.15783,-0.21333 0.23047,-0.32422 0.41214,-0.62917 0.54328,-0.88788 0.52344,-0.91016 z m -10.80664,22.65625 -0.002,0.002 c 0.001,4.3e-4 0.003,-4.8e-4 0.004,0.002 -2.6e-4,-10e-4 -9e-5,-0.003 0,-0.004 z m -0.1836,0.125 -0.004,0.004 c -0.003,0.008 -0.008,0.0209 -0.01,0.0273 0.005,-0.0103 0.009,-0.0209 0.0137,-0.0312 z m -0.45898,1.04883 c -0.002,0.004 -0.004,0.007 -0.008,0.0137 0.002,0.002 0.004,0.005 0.006,0.008 -1e-5,-0.007 -6.5e-4,-0.0143 0.002,-0.0215 z m -0.0566,0.46484 c -0.004,0.009 -0.008,0.0168 -0.0117,0.0254 h 0.002 c 0.002,8e-5 0.004,-3.4e-4 0.006,0 0.003,-0.008 0.002,-0.0171 0.004,-0.0254 z m -120.18555,15.0332 c -6.4e-4,0.003 -0.001,0.007 -0.002,0.01 0.001,-0.002 0.003,-0.006 0.004,-0.008 z m -3.29297,2.34571 c -0.038,0.0425 -0.073,0.0873 -0.10742,0.13281 0.0203,-0.0147 0.043,-0.027 0.0605,-0.0449 0.0235,-0.024 0.0693,-0.11238 0.0469,-0.0879 z m 114.27344,1.61523 c -0.11799,-0.0196 -0.3399,0.2475 -0.22461,0.2793 0.12201,0.0336 0.24861,0.0504 0.375,0.0703 0.0535,-0.119 0.10843,-0.24699 0.12695,-0.28711 -0.0928,-0.0192 -0.18372,-0.047 -0.27734,-0.0625 z m -1.02344,2.35352 c -0.01,-0.0141 0.0605,-0.005 0.24024,0.0371 -0.004,0.022 -0.01,0.046 -0.0137,0.0664 -0.12838,-0.0515 -0.21678,-0.0894 -0.22657,-0.10351 z m -115.43945,5.99609 c -0.003,0.008 -0.007,0.0171 -0.01,0.0254 0.006,0.0109 0.0114,0.0223 0.0176,0.0332 0.0143,0.0139 0.0287,0.0259 0.043,0.041 -0.0183,-0.0336 -0.0344,-0.0665 -0.0508,-0.0996 z m 0.12695,0.14844 c -0.005,-4.2e-4 -0.0124,0.007 -0.0176,0.008 0.004,0.004 0.009,0.008 0.0137,0.0117 0.002,-0.006 0.002,-0.0139 0.004,-0.0195 z m 3.66993,3.95898 c 9.4e-4,9.9e-4 9e-4,0.003 0.002,0.004 -2.3e-4,-0.002 2.3e-4,-4.7e-4 0,-0.004 z m 0.0195,0.041 c -0.001,0.002 -9.2e-4,0.004 -0.002,0.006 0.002,-0.002 0.004,-9e-5 0.006,-0.002 z m 0.004,0.004 c -0.001,0.001 -0.002,0.003 -0.004,0.004 5.3e-4,8.4e-4 6.9e-4,5.5e-4 0.002,0.004 -2.4e-4,-0.002 0.005,-0.002 0.004,-0.004 -7.8e-4,-10e-4 -9.2e-4,-0.003 -0.002,-0.004 z m 0.006,0.0234 c 0.002,0.005 0.004,0.0103 0.006,0.0156 8e-5,-0.005 6e-5,-0.0102 0,-0.0156 -0.002,-4e-5 -0.004,-7e-5 -0.006,0 z m 0.0566,0.12696 c 10e-4,0.002 0.003,0.004 0.004,0.006 0.003,-0.003 0.007,-0.003 0.01,-0.006 -0.005,-7.3e-4 -0.009,5.6e-4 -0.0137,0 z m 0.14844,0.22265 c -0.004,0.003 -0.008,0.005 -0.0117,0.008 0.003,0.004 0.005,0.008 0.008,0.0117 -5.2e-4,-0.007 0.006,-0.0122 0.004,-0.0195 z m 5.10742,2.89453 c 9.3e-4,0.003 -0.002,0.008 -0.002,0.0117 0.005,0.008 0.0118,0.0143 0.0176,0.0215 0.003,1.8e-4 0.005,-1.4e-4 0.008,0 -0.008,-0.0113 -0.019,-0.0336 -0.0234,-0.0332 z m 4.70313,0.50782 c 10e-6,0.004 0,0.008 0,0.0117 0.006,8e-5 0.0131,-1e-5 0.0195,0 4.5e-4,-0.005 3e-4,-0.006 0.002,-0.0117 z m 96.62304,1.44531 c -0.11421,0.0231 -0.19885,0.11763 -0.29882,0.2168 0.14504,0.021 0.30143,0.0162 0.45507,0.0176 l -0.0273,-0.21679 c -0.0446,-0.01 -0.092,-0.025 -0.12891,-0.0176 z m -24.67773,23.50781 c -0.0688,0.0426 8e-5,0.10319 0.11328,0.16992 0.0138,-0.007 0.0257,-0.0173 0.0391,-0.0254 0.087,-0.0529 0.0813,-0.041 0.13672,-0.0742 -0.0301,-0.035 -0.10469,-0.0456 -0.28906,-0.0703 z m -0.54688,0.36524 c -0.0709,0.0492 -0.0764,0.0478 -0.13476,0.0879 l -0.006,-0.006 c -0.0372,-0.0391 0.18499,-0.11556 0.14062,-0.082 z m 4.62891,0.88671 c -0.0231,0.0154 -0.0468,0.0301 -0.0703,0.0449 0.002,0.004 0.006,0.012 0.008,0.0156 0.0209,-0.0194 0.0416,-0.0416 0.0625,-0.0606 z m -27.9043,5.5879 c 0.0141,0.11905 0.0524,0.20481 0.11133,0.26562 -0.0432,-0.10096 -0.0402,-0.10277 -0.11133,-0.26562 z m 0.13672,0.33007 c -0.0238,0.0159 -0.0518,0.0267 -0.0859,0.0332 0.2355,0.41067 0.24244,0.33355 0.0859,-0.0332 z m 6.18555,6.31055 c 0.002,0.0483 0.0114,0.0943 0.043,0.13086 0.16301,0.18868 0.36297,0.3067 0.57617,0.39844 -0.22072,-0.18875 -0.40572,-0.3463 -0.61914,-0.5293 z m 11.91992,1.36133 c -0.0886,0.0589 -0.17418,0.12199 -0.26562,0.17773 0.15923,-0.0334 0.31172,-0.0881 0.46484,-0.14062 -0.0663,-0.0204 -0.13283,-0.0226 -0.19922,-0.0371 z m 10.08594,0.006 c 0.0469,0.22531 0.0941,0.45038 0.14062,0.67578 0.0826,-0.0765 0.16316,-0.15388 0.24414,-0.23242 -0.12724,-0.1484 -0.25209,-0.29877 -0.38476,-0.44336 z"
         transform="matrix(0.74999996,0,0,0.74999996,-58.32289,125.67993)"
         style="fill:#d00b3b;fill-opacity:1;fill-rule:nonzero;stroke:none;stroke-width:1.33333"
         id="path1585" />
      <path
         d="m 140.03711,91.783203 c -0.002,0.07769 -0.0115,0.153325 -0.0156,0.230469 0.008,0.0035 0.0157,0.0062 0.0234,0.0098 0.003,-0.07818 -0.001,-0.156142 0.002,-0.234376 -0.003,-0.002 -0.007,-0.0039 -0.01,-0.0059 z m 2.51562,0.513672 c 0.009,0.06834 0.0148,0.132475 0.0195,0.183594 0.0236,0.0046 0.0524,0.0092 0.0742,0.01367 -0.0341,-0.06716 -0.0632,-0.131379 -0.0937,-0.197266 z m -8.42578,0.152344 c -0.027,0.02112 -0.051,0.04627 -0.0801,0.06445 -0.0556,0.03481 -0.11641,0.06109 -0.17579,0.08984 0.0567,-0.01009 0.11324,-0.02097 0.16993,-0.03125 0.0277,-0.04185 0.0578,-0.08161 0.0859,-0.123047 z m -7.24414,0.285156 c 0,0 -0.0482,0.105654 -0.0527,0.115234 0.0176,-0.0097 0.0351,-0.01967 0.0527,-0.0293 z m 18.73633,1.664063 c -0.009,0.03633 -0.0147,0.07304 -0.0234,0.109374 0.0102,0.04055 0.007,0.06812 0.0137,0.105469 0.0231,0.02414 0.0419,0.04983 0.0645,0.07422 0.0103,-0.07357 0.007,-0.141378 -0.0137,-0.203125 -0.009,-0.027 -0.0295,-0.05807 -0.041,-0.08594 z m -5.5625,1.707031 c -0.003,0.04119 0.002,0.0801 -0.008,0.123047 0.0249,-0.01126 0.0491,-0.02423 0.0742,-0.03516 -0.0226,-0.02904 -0.0442,-0.05858 -0.0664,-0.08789 z m -13.13086,0.353515 c -0.024,0.0056 -0.0481,0.01066 -0.0723,0.01563 -0.01,0.01027 -0.0194,0.021 -0.0293,0.03125 0.0185,0.01312 0.0365,0.02571 0.0566,0.04102 0.015,-0.02931 0.0299,-0.05858 0.0449,-0.08789 z m 0.30664,2.652344 c -0.0107,0.0061 -0.0138,0.0062 -0.0234,0.01172 -0.006,0.01098 -0.0115,0.02223 -0.0176,0.0332 0.0126,-0.01589 0.0282,-0.02917 0.041,-0.04492 z m -1.8457,1.884762 c -0.002,0.0269 3e-4,0.0528 -0.002,0.0801 0.01,-0.0205 0.0183,-0.0541 0.0293,-0.0625 -0.008,-0.007 -0.0189,-0.0109 -0.0273,-0.0176 z m -0.3086,1.33985 c -0.005,7.7e-4 -0.0106,9.5e-4 -0.0156,0.002 v 0.0352 c 0.005,-0.0124 0.0105,-0.0247 0.0156,-0.0371 z m 3.45704,3.46094 c -0.0902,0.20058 -0.17246,0.41671 -0.24414,0.65429 0.0296,-0.0718 0.0623,-0.14227 0.0898,-0.21484 0.17236,-0.45494 0.11864,-0.33187 0.1543,-0.43945 z m -0.22657,2.08203 v 0.002 c 10e-4,-4e-5 0.003,5e-5 0.004,0 -0.001,-5.9e-4 -0.003,-7.5e-4 -0.004,-0.002 z m 4.35547,2.3125 c -0.033,0.0424 -0.0658,0.0851 -0.0996,0.12695 0.19177,0.0682 0.16595,-0.0492 0.0996,-0.12695 z"
         transform="matrix(0.74999996,0,0,0.74999996,-58.32289,125.67993)"
         style="fill:#006bb5;fill-opacity:1;fill-rule:nonzero;stroke:none;stroke-width:1.33333"
         id="path1587" />
      <g
         id="g2579"
         clip-path="url(#clipPath2583)"
         transform="matrix(0.62025147,-0.11114559,-0.12604049,-0.54695296,27.543336,105.43713)">
        <g
           id="g2585"
           transform="matrix(0.95008084,0.01014401,0.01014401,0.99793865,173.37264,106.32193)">
          <path
             d="m 0,0 c 0,-46.617 -37.791,-84.407 -84.406,-84.407 -46.618,0 -84.409,37.79 -84.409,84.407 0,46.617 37.791,84.408 84.409,84.408 C -37.791,84.408 0,46.617 0,0"
             style="fill:#071f79;fill-opacity:1;fill-rule:nonzero;stroke:none"
             id="path2587" />
        </g>
        <g
           id="g2589"
           transform="translate(100.6094,122.8564)">
          <path
             d="M 0,0 C -1.071,0.043 -2.095,0.037 -3.13,0.044 -4.166,0.037 -5.189,0.043 -6.259,0 c -53.33,-2.102 -61.206,-41.123 -61.206,-41.123 0,0 15.464,-45.626 28.368,-56.091 7.425,-6.025 26.31,-15.886 35.967,-16.642 9.657,0.756 28.54,10.617 35.967,16.642 12.903,10.465 28.368,56.091 28.368,56.091 0,0 -7.876,39.021 -61.205,41.123"
             style="fill:#ffffff;fill-opacity:1;fill-rule:nonzero;stroke:none"
             id="path2591" />
        </g>
        <g
           id="g2593"
           transform="translate(82.2905,52.7578)">
          <path
             d="m 0,0 c 0,0 -6.064,-8.475 -13.543,-8.475 -7.481,0 -13.544,8.475 -13.544,8.475 0,0 6.063,7.775 13.544,7.775 C -6.064,7.775 0,0 0,0"
             style="fill:#ffffff;fill-opacity:1;fill-rule:nonzero;stroke:none"
             id="path2595" />
        </g>
        <g
           id="g2597"
           transform="translate(9,70.8394)">
          <path
             d="m 0,0 c 31.969,-1.841 42.277,25.518 42.277,25.518 0,0 21.362,-16.373 54.057,-25.607 42.579,-12.024 81.348,17.761 81.348,17.761 0,0 -32.071,12.554 -41.545,63.183 C 104.793,90.247 60.432,73.862 34.759,61.558 9.086,49.253 18.653,8.55 0,0"
             style="fill:#071f79;fill-opacity:1;fill-rule:nonzero;stroke:none"
             id="path2599" />
        </g>
        <g
           id="g2601"
           transform="translate(112.667,52.7578)">
          <path
             d="m 0,0 c 0,0 6.064,-8.475 13.543,-8.475 7.48,0 13.544,8.475 13.544,8.475 0,0 -6.064,7.775 -13.544,7.775 C 6.064,7.775 0,0 0,0"
             style="fill:#ffffff;fill-opacity:1;fill-rule:nonzero;stroke:none"
             id="path2603" />
        </g>
        <g
           id="g2605"
           transform="translate(117.9082,56.043)">
          <path
             d="M 0,0 C 0,0.642 0.081,1.266 0.22,1.868 2.16,4.049 5,5.432 8.179,5.432 c 3.359,0 6.346,-1.545 8.284,-3.945 C 16.551,1.004 16.602,0.508 16.602,0 16.602,-4.585 12.887,-8.302 8.301,-8.302 3.718,-8.302 0,-4.585 0,0"
             style="fill:#231f20;fill-opacity:1;fill-rule:nonzero;stroke:none"
             id="path2607" />
        </g>
        <g
           id="g2609"
           transform="translate(140.0479,52.1147)">
          <path
             d="m 0,0 c 0,0 -4.114,6.398 -12.531,8.002 -8.419,1.603 -14.85,-7.358 -14.85,-7.358 0,0 5.241,9.156 11.195,10.698 1.908,0.494 4.277,0.259 4.277,0.259 0,0 3.468,1.428 3.994,1.106 0.529,-0.321 -0.659,-1.925 -0.659,-1.925 0,0 3.915,1.577 4.168,1.026 0.251,-0.552 -1.13,-2.48 -1.13,-2.48 0,0 4.872,2.965 5.243,2.183 0.369,-0.783 -2.153,-3.415 -2.153,-3.415 0,0 7.966,3.757 8.325,2.302 C 6.24,8.943 0.334,4.606 0.334,4.606 c 0,0 10.171,4.013 10.423,2.501 0.25,-1.515 -10.864,-7.784 -10.864,-7.784 z"
             style="fill:#231f20;fill-opacity:1;fill-rule:nonzero;stroke:none"
             id="path2611" />
        </g>
        <g
           id="g2613"
           transform="translate(123.6885,55.9985)">
          <path
             d="m 0,0 c 0,-1.191 -0.966,-2.158 -2.155,-2.158 -1.191,0 -2.156,0.967 -2.156,2.158 0,1.19 0.965,2.153 2.156,2.153 C -0.966,2.153 0,1.19 0,0"
             style="fill:#ffffff;fill-opacity:1;fill-rule:nonzero;stroke:none"
             id="path2615" />
        </g>
        <g
           id="g2617"
           transform="translate(54.9092,52.1147)">
          <path
             d="m 0,0 c 0,0 4.115,6.398 12.533,8.002 8.418,1.603 14.849,-7.358 14.849,-7.358 0,0 -5.243,9.156 -11.196,10.698 -1.909,0.494 -4.277,0.259 -4.277,0.259 0,0 -3.467,1.428 -3.994,1.106 -0.527,-0.321 0.66,-1.925 0.66,-1.925 0,0 -3.918,1.577 -4.169,1.026 -0.252,-0.552 1.13,-2.48 1.13,-2.48 0,0 -4.873,2.965 -5.242,2.183 -0.37,-0.783 2.153,-3.415 2.153,-3.415 0,0 -7.966,3.757 -8.326,2.302 -0.36,-1.455 5.545,-5.792 5.545,-5.792 0,0 -10.17,4.013 -10.42,2.501 -0.252,-1.515 10.861,-7.784 10.861,-7.784 z"
             style="fill:#231f20;fill-opacity:1;fill-rule:nonzero;stroke:none"
             id="path2619" />
        </g>
        <g
           id="g2621"
           transform="translate(77.0479,56.043)">
          <path
             d="m 0,0 c 0,0.642 -0.081,1.266 -0.218,1.868 -1.941,2.181 -4.783,3.564 -7.96,3.564 -3.359,0 -6.346,-1.545 -8.284,-3.945 C -16.55,1.004 -16.603,0.508 -16.603,0 c 0,-4.585 3.716,-8.302 8.302,-8.302 C -3.716,-8.302 0,-4.585 0,0"
             style="fill:#231f20;fill-opacity:1;fill-rule:nonzero;stroke:none"
             id="path2623" />
        </g>
        <g
           id="g2625"
           transform="translate(66.1777,55.9971)">
          <path
             d="m 0,0 c 0,-1.191 -0.966,-2.156 -2.155,-2.156 -1.191,0 -2.157,0.965 -2.157,2.156 0,1.19 0.966,2.155 2.157,2.155 C -0.966,2.155 0,1.19 0,0"
             style="fill:#ffffff;fill-opacity:1;fill-rule:nonzero;stroke:none"
             id="path2627" />
        </g>
        <g
           id="g2629"
           transform="translate(94.1978,40.9204)">
          <path
             d="M 0,0 C 0.917,0.549 1.999,0.866 3.164,0.866 4.328,0.866 5.41,0.549 6.329,0 7.015,-0.104 7.665,-0.236 8.264,-0.398 7.197,1.226 5.318,2.314 3.164,2.314 1.009,2.314 -0.869,1.226 -1.937,-0.398 -1.339,-0.236 -0.687,-0.104 0,0"
             style="fill:#231f20;fill-opacity:1;fill-rule:nonzero;stroke:none"
             id="path2631" />
        </g>
        <g
           id="g2633"
           transform="translate(56.457,39.8042)">
          <path
             d="m 0,0 c -0.181,0.021 -4.387,1.309 -7.911,5.006 -4.733,4.966 -4.457,8.661 -4.716,9.74 l 1.033,-2.014 c 0.009,-0.048 1.255,-3.869 4.555,-6.745 C -3.537,2.934 0.136,1.44 0.176,1.436 Z"
             style="fill:#231f20;fill-opacity:1;fill-rule:nonzero;stroke:none"
             id="path2635" />
        </g>
        <g
           id="g2637"
           transform="translate(138.4648,39.8042)">
          <path
             d="m 0,0 c 0.181,0.021 4.388,1.309 7.912,5.006 4.734,4.966 4.456,8.661 4.715,9.74 L 11.594,12.732 C 11.585,12.684 10.341,8.863 7.04,5.987 3.539,2.934 -0.137,1.44 -0.176,1.436 Z"
             style="fill:#231f20;fill-opacity:1;fill-rule:nonzero;stroke:none"
             id="path2639" />
        </g>
        <g
           id="g2641"
           transform="translate(93.5449,41.7104)">
          <path
             d="m 0,0 c -0.823,2.366 -17.322,2.437 -19.2,2.437 -12.431,0 -18.904,-0.991 -19.248,-3.043 0,-6.48 8.836,-14.398 19.146,-14.398 10.176,0 18.913,7.709 19.143,14.139 C 0.124,-0.504 0.054,-0.152 0,0 m -1.395,-1.083 c 0,-4.739 -7.043,-12.051 -16.399,-12.051 -9.357,0 -16.399,7.312 -16.412,11.939 0.322,0.707 4.982,1.759 16.504,1.759 8.944,0 14.949,-0.773 16.307,-1.386 z"
             style="fill:#231f20;fill-opacity:1;fill-rule:nonzero;stroke:none"
             id="path2643" />
        </g>
        <g
           id="g2645"
           transform="translate(101.5352,40.8452)">
          <path
             d="m 0,0 c 0.23,-6.43 8.969,-14.139 19.143,-14.139 10.312,0 19.148,7.918 19.148,14.398 -0.345,2.052 -6.82,3.043 -19.248,3.043 -1.88,0 -18.379,-0.07 -19.201,-2.437 C -0.212,0.712 -0.281,0.361 0,0 m 1.236,0.043 c 1.362,0.613 7.366,1.386 16.308,1.386 11.521,0 16.181,-1.051 16.503,-1.759 -0.013,-4.627 -7.053,-11.938 -16.41,-11.938 -9.358,0 -16.401,7.311 -16.401,12.05 z"
             style="fill:#231f20;fill-opacity:1;fill-rule:nonzero;stroke:none"
             id="path2647" />
        </g>
        <text
           style="font-weight:bold;font-size:50.47489999999999810px;line-height:1.25;font-family:sans-serif;-inkscape-font-specification:'sans-serif Bold';white-space:pre;shape-inside:url(#rect2753);"
           id="text2751"
           xml:space="preserve" />
        <text
           style="font-weight:bold;font-size:50.47489999999999810px;line-height:1.25;font-family:sans-serif;-inkscape-font-specification:'sans-serif Bold';white-space:pre;shape-inside:url(#rect2759);"
           id="text2757"
           xml:space="preserve" />
        <text
           style="line-height:1.25;font-family:sans-serif;font-weight:bold;font-size:50.47492802000000012px;-inkscape-font-specification:'sans-serif Bold';white-space:pre;shape-inside:url(#rect2765);"
           id="text2763"
           xml:space="preserve" />
        <text
           style="font-weight:bold;font-size:50.47489999999999810px;line-height:1.25;font-family:sans-serif;-inkscape-font-specification:'sans-serif Bold';white-space:pre;shape-inside:url(#rect2771);"
           id="text2769"
           xml:space="preserve"><tspan
             style="visibility:hidden"
             x="267.2207"
             y="-148.43655"><tspan
               dx="0 35.292995 32.828403 17.252159 33.71566 35.292984 17.252167 33.518494">pyladies</tspan></tspan></text>
      </g>
      <text
         transform="matrix(2.5467246,0,0,1.3263147,-102.84488,-52.421085)"
         style="font-weight:bold;font-size:29.07829999999999870px;line-height:1.25;font-family:sans-serif;-inkscape-font-specification:'sans-serif Bold';white-space:pre;shape-inside:url(#rect2777);stroke:url(#linearGradient2819);fill-opacity:1;fill-rule:evenodd;fill:url(#linearGradient2795);stroke-opacity:1;"
         id="text2775"
         xml:space="preserve"><tspan
           x="61.677734"
           y="137.2087"><tspan
             style="font-style:normal;font-variant:normal;font-weight:bold;font-stretch:normal;font-size:29.0783px;font-family:Trattatello;-inkscape-font-specification:'Trattatello Bold';fill:url(#linearGradient2795);fill-opacity:1;fill-rule:evenodd;stroke:url(#linearGradient2819);stroke-opacity:1">pyladies
</tspan></tspan></text>
      <text
         transform="scale(0.95795177,1.0438939)"
         id="text2823"
         y="166.37698"
         x="83.242805"
         style="font-weight:bold;font-size:28.7386px;line-height:1.25;font-family:sans-serif;-inkscape-font-specification:'sans-serif Bold';stroke-width:0.718464"
         xml:space="preserve"><tspan
           style="font-style:normal;font-variant:normal;font-weight:bold;font-stretch:normal;font-family:Chalkduster;-inkscape-font-specification:'Chalkduster Bold';stroke-width:0.718464"
           y="166.37698"
           x="83.242805"
           id="tspan2821"
           sodipodi:role="line">ECUADOR</tspan></text>
    </g>
  </g>
</svg>
