<?xml version="1.0" encoding="UTF-8" standalone="no"?>
<svg
   xmlns:osb="http://www.openswatchbook.org/uri/2009/osb"
   xmlns:dc="http://purl.org/dc/elements/1.1/"
   xmlns:cc="http://creativecommons.org/ns#"
   xmlns:rdf="http://www.w3.org/1999/02/22-rdf-syntax-ns#"
   xmlns:svg="http://www.w3.org/2000/svg"
   xmlns="http://www.w3.org/2000/svg"
   xmlns:xlink="http://www.w3.org/1999/xlink"
   id="svg4475"
   version="1.1"
   viewBox="0 0 210 297"
   height="297mm"
   width="210mm">
  <defs
     id="defs4469">
    <linearGradient
       id="linearGradient2793"
       osb:paint="solid">
      <stop
         style="stop-color:#00005c;stop-opacity:1;"
         offset="0"
         id="stop2791" />
    </linearGradient>
    <linearGradient
       xlink:href="#linearGradient2817"
       id="linearGradient2819"
       x1="45.010201"
       y1="136.07465"
       x2="141.4579"
       y2="136.07465"
       gradientUnits="userSpaceOnUse" />
    <linearGradient
       id="linearGradient2817">
      <stop
         style="stop-color:#b9ece9;stop-opacity:1;"
         offset="0"
         id="stop2813" />
      <stop
         style="stop-color:#b9ece9;stop-opacity:0;"
         offset="1"
         id="stop2815" />
    </linearGradient>
    <rect
       x="61.677105"
       y="110.67993"
       width="112.49999"
       height="52.499996"
       id="rect2777" />
    <rect
       x="61.677105"
       y="110.67993"
       width="112.49999"
       height="52.499996"
       id="rect5920" />
    <clipPath
       id="clipPath2583"
       clipPathUnits="userSpaceOnUse">
      <path
         id="path2581"
         d="M 0,198 H 198 V 0 H 0 Z" />
    </clipPath>
    <rect
       x="30.430431"
       y="-2.056869"
       width="248.35233"
       height="146.45366"
       id="rect2753" />
    <rect
       x="30.430431"
       y="-2.056869"
       width="248.35233"
       height="146.45366"
       id="rect5939" />
    <rect
       x="-48.180065"
       y="27.629795"
       width="399.3129"
       height="177.13016"
       id="rect2759" />
    <rect
       x="-48.180065"
       y="27.629795"
       width="399.3129"
       height="177.13016"
       id="rect5942" />
    <rect
       x="131.45618"
       y="-337.96976"
       width="214.42377"
       height="194.40842"
       id="rect2765" />
    <rect
       x="131.45618"
       y="-337.96976"
       width="214.42377"
       height="194.40842"
       id="rect5945" />
    <rect
       x="267.21994"
       y="-324.42117"
       width="167.06587"
       height="129.93555"
       id="rect2771" />
    <rect
       x="267.21994"
       y="-324.42117"
       width="167.06587"
       height="129.93555"
       id="rect5948" />
    <linearGradient
       y2="136.07465"
       x2="141.4579"
       y1="136.07465"
       x1="45.010201"
       gradientUnits="userSpaceOnUse"
       id="linearGradient6169"
       xlink:href="#linearGradient2793" />
  </defs>
  <metadata
     id="metadata4472">
    <rdf:RDF>
      <cc:Work
         rdf:about="">
        <dc:format>image/svg+xml</dc:format>
        <dc:type
           rdf:resource="http://purl.org/dc/dcmitype/StillImage" />
        <dc:title></dc:title>
      </cc:Work>
    </rdf:RDF>
  </metadata>
  <g
     id="layer1">
    <path
       id="path1585"
       style="fill:#d00b3b;fill-opacity:1;fill-rule:nonzero;stroke:none;stroke-width:0.352777"
       d="m 102.31084,19.594181 -1.07487,1.201995 v 1.960604 l -0.25373,0.06356 -0.50591,0.568958 -0.947745,0.442351 -0.190169,0.442349 -0.821656,-0.378788 h -0.126608 c -0.759299,0 -2.339909,1.580782 -2.339909,1.580782 0,0 -3.794945,-0.06356 -3.921723,0.126609 -0.12678,0.190169 -1.328602,1.13843 -1.328602,1.13843 H 90.23096 l -0.185002,0.254765 -2.206066,-0.0677 -0.199988,0.40256 -0.602031,0.333312 -0.534849,0.334865 -0.534334,0.267681 -0.668695,0.401011 -0.06718,0.467156 h -0.600998 l -0.20102,0.401008 h -0.534853 l -0.199988,0.267168 h -1.872752 l -1.069187,1.070734 0.334865,1.737879 0.734322,0.199472 0.602546,0.53485 0.133326,1.070737 -0.334864,0.333311 -0.267166,0.401011 c -0.467156,0.267337 1.003038,2.138886 1.003038,2.138886 l -0.401008,0.268718 h -0.534334 l -0.0677,4.344954 -0.401011,0.133842 -0.06615,0.668177 -0.401008,0.133842 -0.201023,0.802018 -2.339908,2.138371 -0.333831,0.201538 c -1.00321,-0.268719 -2.740916,2.740917 -2.740916,2.740917 l -0.602019,0.600483 -0.467157,1.069703 1.270725,3.075781 h -0.468706 v 0.401011 l -0.267166,0.401007 0.06718,0.401011 -0.468188,0.06615 -0.0677,0.735872 -0.333312,0.133324 -0.06615,0.468706 -0.268719,0.199984 -0.06615,1.203026 -0.267684,0.401011 -0.20102,0.669726 -0.868164,0.401008 -3.476791,-0.133842 c -0.668349,0.333486 -1.136881,1.536859 -1.136881,1.536859 -0.868165,1.739093 2.47375,5.080825 2.47375,5.080825 v 0.401011 l -0.333829,0.06718 v 1.269175 l -0.40101,0.334862 -0.267167,0.199988 0.06615,0.468188 -0.401009,0.467672 -0.133842,0.402043 -0.333313,-0.06718 v 1.603518 h 0.333313 v 0.668694 l 0.468705,0.267166 v 0.468707 l 0.267167,0.199988 v 0.468188 l 0.33383,0.133842 v 0.534334 l 0.401009,0.201538 v 1.269172 l 0.267168,0.201023 v 1.671732 l -0.333314,0.267166 -0.0677,1.537891 c -0.868164,0.868166 -2.874758,1.604036 -2.87476,1.604036 l -0.333312,-0.133842 -0.602031,0.06615 c -0.267339,1.537893 3.342948,3.008603 3.342948,3.008603 l 1.536341,0.334862 c 1.003212,0.199814 1.53789,1.403017 1.53789,1.403017 0,0.46853 2.874761,2.874243 2.874761,2.874243 l 2.540929,1.13688 0.133842,-0.267166 0.467156,-0.468706 0.334862,-0.60048 0.267168,-0.869715 0.600996,-0.06615 0.468707,-0.935861 0.60048,-0.80305 0.334862,-0.802018 c 0.13367,-1.536515 1.805574,-1.937867 1.805574,-1.937867 0,0 0.467157,-0.133495 0,0.199988 -0.468532,0.334865 -1.671732,3.743958 -1.671732,3.743958 l 1.203028,1.002006 c 0.334862,-0.534678 1.671733,-1.002006 1.671733,-1.002006 v -1.204061 l 0.334862,-0.40101 0.199472,-0.868164 v -2.206583 l -0.199472,-0.401011 c -1.537891,-3.341743 1.803852,-3.676777 1.604036,-3.676777 -0.201194,0 -1.070734,2.206583 -1.070734,2.206583 l 0.268716,0.734322 0.06615,3.476792 1.470194,1.938898 v 1.470713 l -0.401007,0.133324 -0.734322,1.871204 -0.869715,2.206583 -0.199988,1.871205 -1.00304,2.072743 -0.20102,0.935858 v 0.334864 c 0,0.333484 -3.07475,2.539381 -3.07475,2.539381 l -1.71514,0.09818 c -0.123664,0.120841 -0.256294,0.233736 -0.379304,0.3545 -0.0581,0.15104 -0.172133,0.272875 -0.294039,0.38654 0.02423,0.04506 0.04616,0.0922 0.05839,0.150895 0.0058,0.02788 -0.02687,-0.05034 -0.04031,-0.07545 -0.08914,-0.08768 -0.01696,-0.02156 0.09663,0.189131 0.0241,0.0447 0.02508,0.0981 0.03773,0.14728 0.02093,0.0814 0.04347,0.1624 0.05943,0.24495 0.0085,0.0441 0.01349,0.0888 0.01913,0.13332 0.197549,0.26954 0.352433,0.50953 0.352433,0.50953 l 0.401008,1.33791 0.201022,1.33686 -0.06718,1.13534 c -0.401008,0.33486 0.802018,3.34346 0.802018,3.34346 l -2.740917,2.07223 -0.210841,-0.3421 c -0.04114,-0.006 -0.117385,-0.0185 -0.211357,-0.045 -0.0057,-5.3e-4 -0.01654,5.3e-4 -0.01913,0 -0.120907,-0.0306 -0.157769,-0.0451 -0.198956,-0.0708 -0.0043,0.002 -0.01061,0.004 -0.01447,0.006 -0.06222,0.0343 -0.2256,0.0894 -0.338481,0.12764 -0.01177,0.0455 -0.02524,0.0906 -0.04651,0.13229 -1.53e-4,0.0111 2.65e-4,0.0221 -0.0011,0.0326 -2.65e-4,0.002 2.64e-4,-0.004 -0.0011,-0.005 -0.0016,-0.002 -0.0016,-0.001 -0.0031,-0.003 0.01492,0.0552 0.03223,0.12328 -0.02119,0.16381 -0.0065,0.005 -0.01458,0.007 -0.0217,0.0104 -0.0019,0.005 -0.0043,0.01 -0.0062,0.0145 0.0066,0.0329 -0.0018,0.0655 -0.0181,0.0956 -0.03057,0.12038 -0.1701,0.27391 -0.283186,0.33642 -0.0096,0.0151 -0.01783,0.0305 -0.02946,0.045 -0.06609,0.082 -0.07958,0.0876 -0.154511,0.14883 -0.01339,0.009 -0.0258,0.0138 -0.03876,0.0212 -0.01916,0.0259 -0.03706,0.0523 -0.06046,0.077 -0.0016,0.0912 -0.0027,0.19545 -0.0021,0.23822 -2.65e-4,0.19716 -2.65e-4,0.39454 5.29e-4,0.5917 -1.32e-4,0.24898 5.29e-4,0.49964 -0.0057,0.74776 0.01487,0.16399 0.01127,0.32004 -0.0067,0.47697 0.01116,-0.003 0.02959,0.052 0.04289,0.0729 0.01797,0.0282 0.02817,0.0459 0.03049,0.0579 0.0013,0.001 0.0036,0.004 0.0052,0.006 0.01315,0.004 0.02183,0.01 0.01913,0.0212 0.0028,0.003 0.0028,0.005 0.0036,0.007 0.01802,0.005 0.0289,0.008 0.0708,0.0186 0.0204,0.005 0.02657,0.0327 0.03927,0.0496 0.03643,0.0485 0.06312,0.0858 0.08992,0.12506 l 0.656291,0.0501 v 0.60255 l -5.29e-4,5.2e-4 c 5e-6,0.006 -5e-6,0.0114 0,0.017 -3e-6,0.003 1.6e-5,0.007 0,0.0104 -8e-6,0.002 0.0013,0.005 0,0.006 v 5.3e-4 h 5.29e-4 c 0,0.005 2.65e-4,0.0104 -0.0011,0.015 v 5.3e-4 c 0.0026,0.005 0.0053,0.0116 0.0052,0.0176 -6.1e-5,8e-4 -2.43e-4,0.001 -5.29e-4,0.002 7.94e-4,8e-4 0.0016,0.002 0.0021,0.003 2.64e-4,5.3e-4 5.29e-4,0.002 5.29e-4,0.003 v 5.3e-4 c 0.0011,2.7e-4 0.0024,0.002 0.0036,0.003 0.0073,0.004 0.015,0.0129 0.02326,0.0269 l 0.0016,0.002 c 5.29e-4,8e-4 7.94e-4,0.002 0.0011,0.003 0.0011,0.002 0.0021,0.005 0.0031,0.007 0.0048,0.009 0.0094,0.016 0.01447,0.0289 7.93e-4,0.001 0.0016,0.002 0.0021,0.004 0.0019,0.003 0.0031,0.007 0.0047,0.01 l 5.29e-4,5.3e-4 c 1.75e-4,5.3e-4 5.8e-5,8e-4 0,0.001 h -5.29e-4 c 2.64e-4,0.001 -2.36e-4,0.001 0,0.002 7.94e-4,0.001 0.0013,0.002 0.0021,0.003 -5.3e-4,-0.002 -5.3e-4,-0.003 -0.0011,-0.004 0.0028,0.004 0.0056,0.008 0.0083,0.0129 0.01688,0.0197 0.0385,0.0453 0.04186,0.0501 0.0021,0.003 0.0042,0.007 0.0062,0.01 0.05564,0.0246 0.109942,0.0523 0.165364,0.0775 -0.0064,-0.001 -0.01053,-0.002 -0.01963,-0.004 0.0016,7.9e-4 0.0035,0.002 0.0052,0.003 7.94e-4,8e-4 0.0019,0.002 0.0031,0.003 0.0013,2.4e-4 0.0016,-2.6e-4 0.0031,0 0.0047,0.002 0.01143,0.004 0.0155,0.007 0.0031,0.002 0.0049,0.006 0.0072,0.009 0.275006,0.0857 0.582078,0.19635 0.743625,0.43977 0.03599,0.0163 0.0713,0.0358 0.106968,0.0532 0.06176,0.009 0.142449,0.0232 0.175184,0.0625 0.0098,0.0118 0.01691,0.0257 0.02585,0.0382 l 5.3e-4,5.3e-4 0.0031,0.002 c 0.0024,-1.6e-4 0.0053,-2.1e-4 0,-0.003 0.0061,-2.7e-4 0.01254,-0.002 0.0186,-0.002 0.01151,0.001 0.02199,0.004 0.03101,0.009 0.0028,0.001 0.0039,0.003 0.0057,0.005 -0.0011,-1.5e-4 -0.0026,-2.2e-4 -0.0026,0 7.93e-4,5.3e-4 0.0024,5.3e-4 0.0031,0.001 h 5.3e-4 c 7.93e-4,5.3e-4 0.0024,0.002 0.0031,0.003 0.0011,5.3e-4 0.0019,0.003 0.0031,0.003 0.0024,5.3e-4 0.0048,5.3e-4 0.0072,0.001 h 5.29e-4 c 0.08218,0.007 0.164335,0.0135 0.246496,0.0202 0.0168,-0.004 0.03354,-0.008 0.05064,-0.0109 0.02262,-0.003 0.04543,-0.004 0.06822,-0.005 0.02423,-0.004 0.04863,-0.007 0.07286,-0.0109 0.0267,-0.004 0.0674,-0.0383 0.0801,-0.0145 5.29e-4,0.001 0.0016,0.002 0.0021,0.004 0.0045,-8e-4 0.0064,-0.001 0.01138,-0.002 0.09502,-0.0159 0.03667,-0.008 0.151413,-0.0196 0.0118,7.9e-4 0.0236,-2.7e-4 0.03514,0.003 0.0024,5.3e-4 -0.0091,0.004 -0.0067,0.004 0.03455,-0.006 0.155345,-0.0473 0.17725,-0.0336 0.003,0.002 0.005,0.005 0.0078,0.007 -0.0088,-0.007 -0.02167,0.007 -0.03514,0.0233 0.0073,0.001 0.01656,0.003 0.02532,0.005 h 5.29e-4 c 0.0026,-0.009 0.0071,-0.0157 0.01601,-0.0191 -5.29e-4,-0.001 -0.0016,-0.002 -0.0021,-0.004 l -5.29e-4,-5.3e-4 c -0.0016,-0.001 -0.003,-0.003 -0.0047,-0.005 0.0013,0.001 0.0031,-5.3e-4 0.0041,0.002 5.29e-4,0.001 5.29e-4,0.002 0.0011,0.004 0.0013,0.001 0.0024,0.003 0.0036,0.004 0.02803,-0.01 0.06788,-0.0104 0.110588,-0.0145 0.07611,-0.007 0.09392,-0.0112 0.158128,-0.0217 -4.7e-5,-8e-4 5.1e-5,-0.002 0,-0.003 -1.32e-4,-0.002 0.0038,0 0.0057,0 h 0.0078 0.02326 0.0739 c 0.02151,0 0.0513,-0.0138 0.0708,-0.0104 0.0061,0.001 0.0109,0.004 0.01447,0.01 0.006,-2.6e-4 0.009,-0.002 0.01551,-0.003 0.0032,-0.006 0.01156,-0.007 0.02429,-0.003 h 0.0016 c 0.01016,-0.002 0.02627,-0.003 0.02894,-0.003 5.29e-4,-2e-5 0.0056,-5.3e-4 0.0057,-5.3e-4 5.29e-4,-4e-5 0.0016,2e-5 0.0021,0 0.0024,-1.3e-4 0.0038,-0.001 0.0078,-0.001 v 0.001 h 5.29e-4 0.02273 0.02894 c 0.0067,0 0.01752,-0.006 0.01963,0 5.29e-4,0.002 -7.94e-4,0.004 -5.29e-4,0.006 0.0019,-0.003 0.0028,-0.006 0.0072,-0.006 2.57e-4,0 -0.0011,0.005 -0.0011,0.005 0.0021,-0.002 0.0024,-0.006 0.0062,-0.005 h 0.118856 v -0.001 c 0.0024,0 0.0033,0.002 0.0057,0.002 h 5.29e-4 c 0.01421,-0.003 0.0266,-0.003 0.03101,0.008 h 0.0062 c 0.03883,-0.0511 0.08785,-0.11575 0.08785,-0.11576 l 1.671733,0.0677 c 0.135776,0.32906 0.569836,0.72424 1.117246,1.12034 0.204792,0.0113 0.436914,0.0356 0.60203,0.0904 0.03778,-1.6e-4 0.07536,0.001 0.111622,0.0104 0.02925,0.008 0.06529,0.0395 0.0956,0.0713 0.07713,-0.0116 0.169067,-7.9e-4 0.283189,0.0336 0.019,-5.3e-4 0.03796,-4e-5 0.05684,0 0.121447,-0.0177 0.225986,-0.0457 0.312643,0.0641 0.142592,0.0173 0.296566,0.0456 0.400491,0.0909 5.3e-4,8e-5 0.0026,5.3e-4 0.0031,5.3e-4 0.159382,0.0322 0.267552,0.0529 0.404627,0.0966 0.0295,-0.0123 0.07421,0.004 0.16278,0.0315 0.0217,0.006 0.04061,0.0159 0.05788,0.0274 0.0052,-0.009 0.0077,-0.019 0.01344,-0.0279 0.12718,-0.19608 0.474004,0.0297 0.658876,0.22634 0.670674,0.13371 1.288841,0.31331 1.875338,0.70952 v -5.3e-4 c 0.0032,0.002 0.0056,0.005 0.0088,0.007 0.630449,-0.12769 1.189075,-0.21135 1.189075,-0.21135 1.27055,0.33349 1.872755,2.36885 1.872755,2.36884 l 0.7059,2.26395 0.02687,0.1602 c 0.03199,0.0321 0.06257,0.0656 0.09508,0.0971 0.0076,0.007 0.0155,0.0144 0.02326,0.0217 0.01609,0.006 0.03732,0.0256 0.05736,0.0455 0.003,-0.002 0.0069,-0.005 0.0098,-0.007 0.06256,-0.0319 0.120314,0.0728 0.176218,0.11524 0.06726,0.0511 0.12011,0.10488 0.167431,0.16226 0.160232,0.0834 0.08985,0.0686 0.256315,0.10955 0.04589,0.0131 0.09075,0.032 0.137975,0.0388 0.04992,0.007 0.100473,0.002 0.150897,0.003 0.113649,0.0127 0.228145,0.0201 0.341064,0.0382 0.250187,0.0401 0.490807,0.1158 0.743624,0.13591 0.130995,-0.0269 0.266179,-0.0572 0.401524,-0.045 0.104111,0.009 0.205592,0.036 0.309025,0.0512 0.107172,0.0157 0.215011,0.0272 0.322461,0.0408 0.47217,0.0581 0.945277,5e-5 1.417484,-0.007 0.09007,0.003 0.18019,0.002 0.27027,0.003 0.09827,-0.0343 0.356713,-0.12461 0.384989,-0.17622 0.187114,-0.18681 0.449665,-0.23949 0.680062,-0.34933 0.096,-0.0458 0.188081,-0.0992 0.282154,-0.14883 0.201425,-0.10997 0.265703,-0.14452 0.344681,-0.1943 0.01741,-0.026 0.03838,-0.0429 0.0646,-0.0424 0.01418,-0.01 0.02283,-0.0143 0.04031,-0.0263 0.01193,0.0126 0.0235,0.0265 0.03514,0.0398 0.01318,-0.0129 -0.0035,0.003 0.01963,-0.0196 0.01759,-0.0169 0.03511,-0.0339 0.05271,-0.0506 -4.5e-5,-0.022 -0.0019,-0.0344 -0.0016,-0.0625 1.86e-4,-0.0223 0.03407,-0.0288 0.05323,-0.0403 0.07426,-0.0446 0.154922,-0.0807 0.23926,-0.1018 0.02511,-0.006 0.05116,-0.007 0.077,-0.009 0.155967,-0.1213 0.355603,-0.24502 0.476457,-0.32918 0.09832,-0.0685 0.189725,-0.1464 0.289388,-0.2129 0.178652,-0.11921 0.361413,-0.21389 0.54932,-0.31575 0.319554,-0.17396 0.596244,-0.41251 0.876434,-0.64234 0.18871,-0.15037 0.18155,-0.21072 0.36845,-0.38343 0.0885,-0.0818 0.1847,-0.15513 0.27699,-0.23255 0.19632,-0.14634 0.3777,-0.31529 0.51056,-0.52296 0.0197,-0.0308 0.0281,-0.0677 0.0465,-0.0992 0.10617,-0.18199 0.11832,-0.18373 0.25012,-0.3421 0.21174,-0.21268 0.46768,-0.37736 0.63407,-0.63045 0.12204,-0.16498 0.28927,-0.27968 0.44338,-0.4098 0.0663,-0.056 0.1217,-0.12439 0.1881,-0.18035 0.0581,-0.049 0.12089,-0.0914 0.18139,-0.13746 0.13544,-0.12482 0.30261,-0.22636 0.44131,-0.34519 0.0195,-0.0167 0.0271,-0.0439 0.045,-0.062 0.0331,-0.034 0.0802,-0.0725 0.12454,-0.11162 0.005,-0.009 0.005,-0.0142 0.0165,-0.0315 0.007,-0.0112 0.0142,-0.0226 0.0222,-0.0331 0.002,-0.002 0.006,-0.002 0.007,-0.005 0.0143,-0.0331 0.0164,-0.0706 0.0346,-0.10232 0.0265,-0.0529 0.0325,-0.0659 0.061,-0.11782 0.0213,-0.0387 0.0486,-0.0776 0.0662,-0.11834 0.005,-0.0124 0.009,-0.025 0.0139,-0.0377 0.009,-0.0286 0.0155,-0.0579 0.0263,-0.0858 0.0171,-0.0442 0.0636,-0.13078 0.10284,-0.17725 -8e-5,-0.004 2e-5,-0.0144 0.0165,-0.076 0.008,-0.0307 0.0192,-0.0605 0.0284,-0.0909 0.008,-0.0274 0.0157,-0.0549 0.0243,-0.0822 -0.017,-0.0698 0.0466,-0.16735 0.0692,-0.21239 0.019,-0.0376 0.0379,-0.0758 0.0568,-0.11369 2.6e-4,-2.6e-4 7.9e-4,-0.002 0.002,-0.003 l -0.0708,-0.57154 1.02577,-1.64951 c 0.0364,-0.11263 0.075,-0.22456 0.11214,-0.33693 0.0303,-0.11345 -0.0235,-0.32195 0.0873,-0.34416 -0.003,-8e-4 -0.005,-0.002 -0.008,-0.003 -0.025,-0.009 -0.009,-0.0404 0.008,-0.0718 0.003,-0.0147 0.013,-0.0328 0.0212,-0.0486 0.0237,-0.0948 0.0466,-0.19003 0.0708,-0.28474 0.0426,-0.1668 0.0632,-0.2681 0.0925,-0.33331 -0.003,-0.0388 8e-4,-0.092 0.008,-0.17519 0.002,-0.0126 0.01,-0.0512 0.0139,-0.0739 0.0306,0.0123 0.10189,0.0413 0.15245,0.0615 0.0159,-0.0258 0.021,-0.0452 -0.0295,-0.0315 0.002,-0.0109 0.001,-0.006 0.003,-0.0155 -0.0424,-0.0111 -0.10617,-0.0282 -0.12248,-0.032 0.0212,-0.11397 0.0519,-0.27127 0.0734,-0.31677 -0.002,-0.0467 -0.002,-0.0933 0.004,-0.13953 0.0135,-0.10751 0.0583,-0.13858 0.0982,-0.22221 0.033,-0.0692 0.0582,-0.14229 0.0935,-0.21032 0.16974,-0.32709 -0.0161,0.1362 0.14728,-0.30954 0.0105,-0.0241 0.0289,-0.0462 0.0315,-0.0724 0.006,-0.0595 -0.0512,-0.13895 -0.006,-0.17932 0.0225,-0.0206 0.0471,-0.0385 0.0729,-0.0553 0.003,-0.009 0.008,-0.019 0.0124,-0.0289 l 0.0599,-0.62993 c 0.16725,-0.9344 0.87745,-1.80825 1.5136,-2.43241 0.007,-0.0168 0.0136,-0.0335 0.0207,-0.0501 0.0429,-0.10104 0.0842,-0.20266 0.13023,-0.30231 0.017,-0.0367 0.0283,-0.061 0.0419,-0.0904 -0.001,-0.2518 0.27697,-0.68361 0.33486,-0.76222 1.6e-4,0.004 1.5e-4,0.0101 -5.3e-4,0.016 0.002,-0.003 0.003,-0.007 0.006,-0.0104 0.002,-0.003 0.004,-0.005 0.007,-0.008 2.2e-4,-5.3e-4 0.001,-0.003 0.002,-0.003 v -5.3e-4 c 7.9e-4,-0.002 0.002,-0.004 0.003,-0.006 5.3e-4,-0.001 0.002,-0.002 0.003,-0.003 0.004,-0.007 0.008,-0.0134 0.0108,-0.0207 5.3e-4,-0.001 -8e-4,-0.003 0,-0.004 v -5.3e-4 h 5.3e-4 c 5.3e-4,2.6e-4 7.9e-4,7.9e-4 0.002,0.001 0,-0.001 -1e-5,-0.002 0,-0.004 -5.3e-4,0 -8e-4,7.9e-4 -0.001,0.001 0.001,-0.003 0.002,-0.006 0.003,-0.009 1.2e-4,-0.0184 -2e-4,-0.0369 0.003,-0.0548 0.007,-0.0375 0.11488,-0.20873 0.13022,-0.22066 0.001,-0.001 0.001,7.9e-4 0.002,5.3e-4 0.002,-0.004 0.004,-0.008 0.007,-0.0114 0.002,-0.003 0.003,-0.005 0.005,-0.008 8e-4,-0.002 0.002,-0.005 0.003,-0.007 0.003,-0.007 0.008,-0.012 0.0145,-0.0155 l 0.003,-5.3e-4 5.3e-4,-5.3e-4 c 0.003,-0.002 0.005,-0.004 0.007,-0.007 0.003,-0.007 0.007,-0.0145 0.01,-0.0217 -0.003,0.004 -0.007,0.006 -0.0103,0.0109 0.006,-0.0191 0.0202,-0.0465 0.0444,-0.0863 0.004,-0.008 0.008,-0.0166 0.0114,-0.0248 8e-4,5.3e-4 0.002,5.3e-4 0.003,0.001 0.0274,-0.0436 0.0454,-0.0722 0.0656,-0.10387 0.004,-0.0103 0.007,-0.0188 0.0119,-0.03 0.005,-0.0115 0.017,-0.0273 0.0253,-0.0419 0.004,-0.0437 0.007,-0.0784 0.0134,-0.14521 0.005,-0.0114 0.0307,-0.061 0.0543,-0.10594 -0.001,-0.005 -0.002,-0.0122 -0.003,-0.0165 0.007,-0.007 0.0152,-0.0125 0.0222,-0.0196 0.0377,-0.0702 0.0817,-0.14871 0.11524,-0.1974 -0.002,-0.007 -0.002,-0.0145 -0.005,-0.0207 0.0788,-0.14855 0.0703,-0.41756 0.23616,-0.44545 0.0145,-0.002 0.0266,-0.002 0.0403,-0.004 l 0.47284,-3.15123 c 0.3224,-0.90257 0.75919,-0.98267 1.11053,-0.84542 0.11831,-0.13123 0.2386,-0.233793 0.35088,-0.290427 -0.0284,0.105897 -0.0253,0.09564 -0.031,0.117821 0.004,-0.006 0.009,-0.01209 0.0129,-0.0181 0.0652,-0.192045 0.25157,-0.724607 0.41031,-0.71882 0.099,0.0036 0.19843,0.01251 0.29766,0.02326 v -0.102836 l 6.32364,-6.198071 c 1.13826,0.56913 20.36775,-7.400583 20.36775,-7.400583 4.8066,-1.265037 17.64544,-16.82395 17.64544,-16.887341 0,-0.06339 2.53007,-9.48676 2.53007,-9.48676 0.13525,0.433525 0.70974,0.51494 1.30328,0.469739 -0.0403,-0.176044 -0.0771,-0.355868 -0.10335,-0.537435 -0.0222,-0.0182 -0.0455,-0.03519 -0.0667,-0.05478 -0.23367,-0.21576 -0.3203,-1.207728 -0.35191,-1.44539 -0.041,-0.307993 -0.36694,-0.746395 -0.13333,-0.931727 -0.0248,-0.04633 -0.0503,-0.09239 -0.0754,-0.137975 -0.006,-0.01053 -0.012,-0.03522 0,-0.03617 0.002,-1.27e-4 0.003,1.27e-4 0.005,0 -1.4e-4,-7.94e-4 2.7e-4,-0.0013 -5.3e-4,-0.0021 -0.002,3.5e-5 -0.002,-3.4e-5 -0.004,0 v -0.02119 -0.291454 c -0.0101,-0.0016 -0.01,-0.0028 0,-0.0031 v -0.563274 c 0,-0.157755 0.0353,-0.279728 0.0889,-0.370001 v -1.625743 c 0,-0.230576 0.0291,-0.431374 0.0734,-0.612881 -0.0416,-0.179927 -0.0818,-0.361841 -0.12505,-0.546738 -0.33484,-0.636825 -0.66368,-1.26084 -0.8599,-1.937347 -0.0645,-0.02659 -0.19327,-0.08113 -0.19327,-0.08113 -0.1254,-3.795118 -3.28817,-4.490683 -3.28817,-4.490683 l 0.18862,-0.632521 c 1.32843,-0.37896 1.83451,0.505396 1.83451,0.505396 l 0.7953,-0.03049 c -0.0727,-0.0767 -0.2024,-0.191502 -0.18603,-0.236161 -0.0417,-0.025 -0.0703,-0.04779 -0.0594,-0.06201 -0.47847,-0.42775 -0.84029,-0.956575 -1.24902,-1.447972 -0.14164,-0.170262 -0.29547,-0.330383 -0.43512,-0.502296 -0.11508,-0.141661 -0.21864,-0.291687 -0.32814,-0.4377 -0.0341,-0.04545 -0.062,-0.09005 -0.092,-0.134874 l -2.93522,-0.373101 -2.91042,-2.720247 c -1.83417,-2.593471 -4.17442,-2.908867 -4.17442,-2.908867 l -3.41478,-0.06356 -0.12661,1.390612 c -1.93602,1.800679 -3.29088,1.327501 -3.91346,0.904855 -0.0872,0.0026 -0.17456,0.0063 -0.26096,-0.0036 -0.0109,-0.0012 0.0203,-0.0083 0.0305,-0.0124 -0.21308,0.03268 -0.42869,0.01093 -0.64337,0.0026 0.0421,-0.06958 0.0954,-0.135026 0.14779,-0.201022 -0.0211,-0.0046 -0.0343,-0.01206 -0.0222,-0.02997 0.007,-0.0096 0.0164,-0.0151 0.0243,-0.02325 -0.0382,0.01828 -0.0775,0.03685 -0.12196,0.05374 -0.0163,0.0062 -0.0334,0.0042 -0.0506,0 -0.006,0.08179 -0.016,0.162482 -0.0419,0.237712 -0.0138,0.04012 -0.0848,-0.0073 -0.1266,-0.01447 -0.19598,-0.03343 -0.19722,-0.03845 -0.36897,-0.0894 -0.1332,-0.02701 -0.2688,-0.05832 -0.40308,-0.0925 -0.25547,0.147893 -0.44855,0.280604 -0.44855,0.280604 l -1.26729,0.188794 c -0.55393,-0.213405 -1.94654,-1.011282 -2.81999,-1.522904 -0.0122,0.01314 -0.0241,0.02671 -0.0377,0.03824 -0.0495,0.04174 -0.12933,-0.01307 -0.19378,-0.01964 -0.0882,-0.02874 -0.17398,-0.0648 -0.26304,-0.09095 -0.10489,-0.0308 -0.21283,-0.05095 -0.31729,-0.0832 -0.0695,-0.02144 -0.16335,-0.01898 -0.21704,-0.06098 -0.18375,-0.02675 -0.3806,-0.10071 -0.44597,-0.130741 -0.0639,-0.02935 -0.1234,-0.06694 -0.18397,-0.102836 -0.0366,-0.0071 -0.0777,-0.01488 -0.0661,-0.03669 -0.008,-0.005 -0.0177,-0.0097 -0.0264,-0.01447 H 130.21 l -0.31574,0.188619 -1.39217,0.126607 -0.44183,-0.253214 c -2.97243,-0.442351 -3.03599,-3.098 -3.03599,-3.098 1.07487,-2.02434 -0.88625,-2.15129 -0.88625,-2.15129 l -0.37879,0.317294 -0.76946,-0.623218 c -0.23375,-0.0061 -0.48852,-0.03964 -0.76378,-0.108522 -0.1948,-0.0487 -0.39607,-0.07822 -0.58498,-0.146243 -0.25332,-0.09121 -0.49199,-0.216733 -0.73639,-0.329697 -0.0617,-0.02851 -0.12245,-0.06046 -0.18293,-0.09147 l -0.003,5.29e-4 c -0.0128,-0.0064 -0.0178,-0.0094 -0.03,-0.0155 -0.0264,-0.01352 -0.0531,-0.02654 -0.0796,-0.03979 -0.0243,-0.01217 -0.085,-0.01183 -0.0729,-0.03617 7e-5,-7.93e-4 0.003,-0.0013 0.003,-0.0021 -0.17116,-0.08897 -0.24239,-0.149493 -0.23668,-0.230479 -0.16649,-0.06306 -0.32903,-0.138755 -0.48369,-0.227375 -0.0592,0.0094 -0.13306,-0.0011 -0.21756,-0.04341 -0.0528,-0.02638 -0.10589,-0.05268 -0.15864,-0.07906 -0.0164,-0.0082 -0.0327,-0.01675 -0.0491,-0.02479 h -0.003 c -0.0148,-0.0019 -0.0432,-0.0056 -0.0393,-0.01963 -0.003,-0.0016 -0.007,-0.0035 -0.01,-0.0052 -0.007,-0.0033 -0.0231,-0.0033 -0.0196,-0.0098 0.003,-0.0055 0.006,-0.01106 0.009,-0.01654 -0.0367,-0.01394 -0.0718,-0.02442 -0.11059,-0.04186 h -0.0718 c -0.003,0 -0.007,0.0019 -0.01,0 -0.0662,-0.04344 -0.10336,-0.07694 -0.13126,-0.103868 -0.007,-0.0013 -0.0397,-0.0064 -0.0548,-0.0098 7e-5,0.0021 -1.3e-4,0.0019 0,0.0047 -0.002,-0.0021 -0.004,-0.0037 -0.005,-0.0057 -0.0149,-0.0034 -0.0173,-0.0019 -0.0501,-0.0088 -0.0512,-0.0109 -0.0817,-0.02151 -0.003,-0.04548 -0.0217,-0.01259 -0.0458,-0.02703 -0.0677,-0.03979 -0.009,0.0039 -0.0171,0.0083 -0.0274,0.01035 0.002,-0.0082 0.004,-0.01648 0.005,-0.02479 -0.0285,-0.01677 -0.0552,-0.0319 -0.0863,-0.05116 -0.007,0.0167 -0.0108,0.03402 -0.0176,0.05064 -0.003,0.0066 -0.008,0.0091 -0.0108,0.01447 0.005,0.0069 0.0117,0.01474 0.015,0.02066 0.0338,-8.5e-5 0.0643,-0.0046 0.0941,-0.0098 -7.9e-4,0.003 -0.002,0.0063 -0.003,0.0093 -0.009,0.03045 -0.0618,0.01397 -0.093,0.01963 -0.004,7.94e-4 0.006,-0.0081 0.005,-0.01188 -7.9e-4,-0.0019 -0.004,-0.0051 -0.005,-0.0072 -0.0107,3.2e-5 -0.0203,0.0026 -0.031,0.0026 -0.0888,0.08186 -0.29367,-0.09515 -0.44597,-0.22996 -0.36192,-0.155652 -0.7809,-0.335127 -0.84594,-0.363286 -0.11043,-0.04574 -0.0645,-0.02521 -0.14211,-0.05633 h -5.3e-4 c -0.0133,-0.0031 -0.0291,1.72e-4 -0.0403,-0.0083 -0.006,-0.0041 -0.0106,-0.0095 -0.016,-0.01394 -0.18753,-0.07403 -0.41336,-0.165044 -0.40566,-0.162782 h -5.3e-4 -5.3e-4 -5.3e-4 -5.2e-4 -5.3e-4 -5.3e-4 -5.3e-4 -5.3e-4 -5.3e-4 -5.3e-4 c 5.3e-4,0.02476 0.004,0.04969 0.003,0.07441 -0.003,0.125058 -0.32711,-0.04609 -0.35967,-0.176215 -0.35196,0.01982 -0.83012,-0.2153 -1.20871,-0.564825 -0.42495,-0.172749 -0.86071,-0.392337 -1.1684,-0.671793 -0.0687,-0.02331 -0.13865,-0.04317 -0.20568,-0.0708 -0.0361,-0.01482 -0.14194,-0.126799 -0.25579,-0.25373 -0.18623,-0.07151 -0.36452,-0.157385 -0.53279,-0.245981 -0.005,-0.003 -0.008,-0.0026 -0.0134,-0.0062 -0.003,-0.0021 -0.007,-0.0045 -0.01,-0.0067 -0.14165,-0.07526 -0.27811,-0.152218 -0.39945,-0.223758 -0.3664,-0.03794 -0.41939,-0.0899 -0.83768,-0.479558 -0.33815,-0.102909 -0.6242,-0.287033 -0.96067,-0.615984 -0.006,-5.29e-4 -0.0128,-0.0013 -0.0191,-0.0021 -0.39703,-0.03983 -0.518,-0.186171 -0.56844,-0.40876 -0.0302,-0.0108 -0.0607,-0.02265 -0.0935,-0.04444 -0.0421,-0.02806 -0.0853,-0.05484 -0.1266,-0.08423 -0.0985,-0.06951 -0.19512,-0.147115 -0.28392,-0.228509 -0.0497,-0.04556 -0.0517,-0.07136 -0.0475,-0.04083 -0.0635,-0.03289 -0.10854,-0.08837 -0.16278,-0.132291 -0.004,-0.0032 -0.009,-0.0042 -0.0134,-0.0067 0.008,0.02027 0.0138,0.0411 0.016,0.06305 0.003,0.03523 -0.0626,-0.03307 -0.0909,-0.05426 -0.15556,-0.116258 -0.26316,-0.204238 -0.36897,-0.297657 -0.12355,0.137568 -0.43296,-0.175397 -0.72037,-0.564822 -0.0197,-0.0032 -0.0291,-0.02008 -0.0336,-0.04289 -7.9e-4,-0.0013 -0.002,-0.0024 -0.003,-0.0036 -0.008,-0.0044 -0.0169,-0.0091 -0.0253,-0.01344 -0.002,0.0038 -0.004,0.008 -0.006,0.01085 -0.0116,0.01281 -0.0303,-0.01297 -0.0455,-0.02429 -0.0799,-0.01495 -0.16539,-0.03527 -0.26768,-0.0677 -0.0179,-0.0057 0.0369,0.0077 0.0553,0.01138 -0.0303,-0.04093 -0.0606,-0.08206 -0.0909,-0.122988 0.0106,0.0024 0.0213,0.0037 0.032,0.0057 -0.017,-0.01423 -0.0312,-0.0319 -0.047,-0.04806 -0.0287,-0.01622 -0.0371,-0.02109 -0.0506,-0.02842 -0.0521,0.0097 -0.1116,0.0059 -0.1633,0.01654 -0.17306,-0.06879 -0.35619,-0.120735 -0.53899,-0.173117 -0.006,-7.94e-4 -0.0105,-0.0013 -0.015,-0.0036 -0.14802,-0.04247 -0.29516,-0.08658 -0.43666,-0.140044 -0.12236,0.05467 -0.22825,0.06843 -0.18707,-0.08061 -0.0454,-0.02175 -0.0906,-0.04383 -0.13384,-0.06925 0.006,-0.01241 0.012,-0.02252 0.0186,-0.03566 -0.0328,-0.01275 -0.067,-0.02719 -0.10181,-0.04392 -0.002,0.0058 -0.005,0.01344 -0.007,0.01913 0.0297,0.02048 0.0585,0.04217 0.0894,0.06046 -0.26754,0.530336 -0.2408,0.381905 -0.0904,-0.06046 -0.0323,-0.02233 -0.0656,-0.04293 -0.0961,-0.06821 -0.004,-0.0029 -0.006,-0.0063 -0.01,-0.0093 -0.0723,-0.04118 -0.14932,-0.08956 -0.23926,-0.151929 -0.1249,-0.08651 -0.40408,-0.15344 -0.34778,-0.294556 0.0668,-0.167476 0.14483,-0.329353 0.22789,-0.488857 -1.6e-4,-0.0016 2.7e-4,-0.0037 -0.001,-0.0052 -0.008,-0.07338 -0.0113,-0.149651 -0.0104,-0.226343 l -0.7276,0.04857 z m 4.17597,4.095875 c 0.0104,0.0105 0.0231,0.0177 0.0341,0.02739 1.9e-4,-0.0035 -5.2e-4,-0.0058 0,-0.0098 -0.0142,-0.0063 -0.0225,-0.01169 -0.0341,-0.01757 z m 0.0341,0.01757 c 0.007,0.0031 0.009,0.0038 0.0171,0.0078 0.001,-0.003 0.002,-0.0052 0.003,-0.0083 -0.003,-0.0027 -0.005,-0.0053 -0.008,-0.0078 -0.004,-7.94e-4 -0.007,-0.0013 -0.0109,-0.0021 -1.4e-4,0.0032 -5.2e-4,0.0066 -0.001,0.01034 z m 0.0202,-5.29e-4 c 0.006,0.006 0.0124,0.01135 0.0186,0.01707 8e-4,-7.94e-4 0.002,-0.0013 0.003,-0.0021 -1.1e-4,-0.0055 -5.2e-4,-0.01103 -5.2e-4,-0.01654 -0.006,-0.0011 -0.0117,-0.0024 -0.0176,-0.0036 -8e-4,0.0016 -0.003,0.0038 -0.003,0.0052 z m 0.0212,0.01498 c 3e-5,0.0013 -2e-5,0.0027 0,0.0041 -0.001,-5.3e-4 -5.2e-4,2.64e-4 -0.002,-5.3e-4 0.0343,0.03089 0.0729,0.05567 0.11318,0.06046 -0.0252,-0.01468 -0.0454,-0.03655 -0.0646,-0.05943 -0.003,-5.29e-4 -0.006,0.0026 -0.007,0.0011 -0.001,-0.0034 -0.002,-0.0069 -0.003,-0.01035 -0.002,-0.0024 -0.003,-0.0032 -0.004,-0.0047 -0.007,-0.0013 -0.0137,-0.0033 -0.0207,-0.0047 -0.005,0.0054 -0.009,0.01143 -0.0119,0.01394 z m 0.0367,-0.0047 c 0.004,0.0047 0.005,0.0062 0.008,0.0093 5.3e-4,-5.3e-4 5.3e-4,-0.0011 0.001,-0.0016 -0.003,-0.0039 -0.007,-0.0074 -0.01,-0.01138 5.3e-4,0.0011 5.3e-4,0.0024 0.001,0.0036 z m 0.0749,0.06873 c 0.0225,0.01312 0.0494,0.02003 0.0801,0.02119 -0.0174,-0.0065 -0.0346,-0.01225 -0.0506,-0.02066 -0.01,0.0013 -0.0195,5.29e-4 -0.0294,-5.29e-4 z m 0.0801,0.02119 c 0.007,0.0027 0.0138,0.0062 0.0212,0.0088 0.003,-0.0016 0.006,-0.0024 0.009,-0.0041 0.002,-0.0013 0.004,-0.0024 0.006,-0.0036 -0.0138,0.0019 -0.0246,-5.3e-4 -0.0367,-0.0011 z m 0.0305,0.0047 c -0.002,-2.65e-4 0.0104,0.01016 0.0165,0.01394 0.003,0.0021 0.005,0.0024 0.0109,0.0047 -0.009,-0.0064 -0.018,-0.01281 -0.0274,-0.0186 z m -0.009,0.0041 c -0.0191,0.01008 -0.0373,0.01712 -0.0563,0.02585 0.0881,0.03568 0.18488,0.05642 0.28733,0.06356 -0.0204,-0.0092 -0.0407,-0.01886 -0.061,-0.02842 h -5.3e-4 l -5.3e-4,-5.3e-4 c -0.009,-0.0042 -0.0181,-0.008 -0.0269,-0.01241 -0.0167,-0.0083 -0.0431,-0.01206 -0.0599,-0.02066 -0.009,-8.4e-5 -0.018,5.3e-4 -0.0269,0 -0.006,-0.0039 -0.0116,-0.0079 -0.017,-0.01188 -0.0128,-0.0047 -0.025,-0.0109 -0.0382,-0.01551 z m -0.21445,-0.09043 c -5.3e-4,-5.3e-4 -5.3e-4,-0.0011 -0.001,-0.0016 l -5.3e-4,5.29e-4 c 0.001,5.29e-4 5.3e-4,5.29e-4 0.002,0.0011 z m 0.49557,0.131257 c -5.2e-4,0.0034 -5.2e-4,0.0069 -0.001,0.01034 0.0109,-0.0029 0.016,-0.0064 0.004,-0.0098 -7.9e-4,-2.3e-4 -0.002,2.64e-4 -0.003,-5.29e-4 z m 0.21446,0.06821 c 8e-4,2.64e-4 0.001,5.29e-4 0.002,0.0011 5.3e-4,-2.65e-4 5.3e-4,-7.94e-4 0.001,-0.0011 -0.001,-1.1e-5 -0.002,10e-6 -0.003,0 z m 0.0749,0.03979 c 0.14452,0.07051 0.29287,0.118623 0.39068,0.145727 -0.002,-0.0051 -0.004,-0.0077 -0.005,-0.01707 -0.0319,-0.0062 -0.085,-0.02379 -0.11938,-0.04961 -0.0236,0.0028 -0.0426,-0.0088 -0.0553,-0.03514 -0.0107,-0.0053 -0.0214,-0.01072 -0.032,-0.01603 -0.0143,-0.0095 -0.0404,-0.01249 -0.0434,-0.02791 -0.0327,-1.22e-4 -0.0656,-2.65e-4 -0.0982,5.29e-4 -0.003,4e-5 -0.0275,-5.29e-4 -0.0377,-5.29e-4 z m 0.38602,0.128675 c 0.005,0.0011 0.0148,0.0042 0.0181,0.0047 0.006,7.93e-4 0.0127,-0.0021 0.0191,-0.0031 -0.0128,-0.0053 -0.025,-0.01161 -0.0377,-0.01704 5.3e-4,0.0045 -2.6e-4,0.0105 5.3e-4,0.0155 z m 0.0522,0.0083 c -0.004,0.0045 -0.0102,0.0088 -0.0165,0.01394 0.0133,0.0013 0.0269,0.0024 0.0439,5.29e-4 -2.6e-4,-2.65e-4 -0.004,-0.0038 -0.005,-0.0041 -0.008,-0.0031 -0.015,-0.0072 -0.0227,-0.01035 z m 3.66903,2.466517 c 0.0185,0.0088 0.0346,0.01905 0.0563,0.02585 -0.003,-0.0043 -0.006,-0.0085 -0.009,-0.01291 -0.0151,-0.0029 -0.031,-0.0081 -0.047,-0.01291 z m 1.71411,0.942577 c 7.9e-4,0.01042 0.002,0.0204 0.002,0.02997 0.0433,-2.64e-4 0.0878,-0.0024 0.13539,-0.0098 -8e-4,-0.0011 -0.002,-0.0021 -0.003,-0.0031 -0.0384,0.0035 -0.0834,-0.0016 -0.13488,-0.01707 z m 3.27422,1.809709 c -0.007,0.01445 -0.0152,0.02821 -0.0217,0.04289 -0.006,0.01434 -0.003,0.0302 -0.001,0.04651 0.005,-2.63e-4 0.0113,0.0011 0.0165,5.3e-4 0.0197,-0.02143 0.0408,-0.04196 0.061,-0.06305 -0.0199,-0.0084 -0.0419,-0.0199 -0.0548,-0.02687 z m 0.33124,0.15813 c 5.3e-4,0.01101 0.002,0.02207 0.003,0.03307 0.0134,0.0045 0.1258,0.03836 0.25735,0.06873 -0.0117,-0.009 -0.0234,-0.01789 -0.0351,-0.02687 -0.005,-0.0016 -0.0189,-0.0104 -0.0165,-0.0052 0.003,0.0078 0.0295,0.01802 0.0207,0.01497 -0.0328,-0.01257 -0.0729,-0.01773 -0.0966,-0.04238 -0.0458,-0.01035 -0.089,-0.02671 -0.13229,-0.04237 z m 0.28164,0.08475 c 0.0126,0.01656 0.0135,0.01675 0.0217,0.02687 0.005,0.0011 0.01,0.0016 0.0145,0.0026 -0.0119,-0.01 -0.0228,-0.02138 -0.0362,-0.02946 z m 3.08043,0.119888 -0.006,0.0036 c 0.001,7.95e-4 0.002,0.0013 0.004,0.0021 8e-4,-0.0019 0.002,-0.0038 0.003,-0.0057 z m -0.47284,0.303858 c -0.0153,0.0033 -0.0307,0.006 -0.046,0.0093 0.0199,0.01196 0.0366,0.0141 0.046,-0.0093 z m 0.69556,0.585494 c -0.0127,0.0033 -0.0258,0.0066 -0.0393,0.01034 0.0278,0.01214 0.0559,0.02521 0.0842,0.03669 -0.0147,-0.01654 -0.0303,-0.03108 -0.045,-0.04703 z m 9.97873,6.921025 c 0.003,0.0012 0.007,0.0028 0.0104,0.0036 7.9e-4,-0.0012 0.002,-0.0024 0.003,-0.0036 z m 0.52864,0.136943 c 0.002,0.02566 0.004,0.05134 0.006,0.077 5.3e-4,0.0014 0.001,0.0027 0.002,0.0041 -1.2e-4,-0.02645 -0.005,-0.05415 -0.008,-0.08113 z m 29.47521,20.686077 c -0.0117,0.02254 -0.0174,0.04465 -0.007,0.06046 0.001,-0.02064 0.005,-0.04006 0.007,-0.06046 z M 77.816732,99.032745 c 0.01717,0.03382 0.01669,0.03208 0.03927,0.07648 2.65e-4,-5.29e-4 7.94e-4,-0.0011 0.0011,-0.0016 0.01408,-0.02135 0.02928,-0.04201 0.04393,-0.06304 -0.02997,-0.0056 -0.05628,-0.0079 -0.08423,-0.01188 z m 34.084738,0.452168 c -0.009,-0.0098 -0.12532,0.153434 -0.19947,0.326596 0.0199,-0.02887 0.0418,-0.05644 0.061,-0.08578 0.10905,-0.166468 0.14374,-0.234918 0.13849,-0.240813 z m -2.85925,5.994467 -5.3e-4,5.3e-4 c 2.6e-4,1.1e-4 7.9e-4,-1.3e-4 0.001,5.3e-4 -7e-5,-2.7e-4 -3e-5,-8e-4 0,-0.001 z m -0.0486,0.0331 -0.001,0.001 c -8e-4,0.002 -0.002,0.005 -0.003,0.007 0.001,-0.003 0.002,-0.006 0.004,-0.008 z m -0.12144,0.2775 c -5.3e-4,0.001 -0.001,0.002 -0.002,0.004 5.3e-4,5.3e-4 0.001,0.001 0.002,0.002 0,-0.002 -1.7e-4,-0.004 5.3e-4,-0.006 z m -0.015,0.12299 c -0.001,0.002 -0.002,0.004 -0.003,0.007 h 5.3e-4 c 5.3e-4,2e-5 0.001,-9e-5 0.002,0 7.9e-4,-0.002 5.3e-4,-0.005 0.001,-0.007 z m -31.799089,3.97754 c -1.69e-4,7.9e-4 -2.64e-4,0.002 -5.29e-4,0.003 2.65e-4,-5.3e-4 7.94e-4,-0.002 0.0011,-0.002 z m -0.871264,0.62063 c -0.01005,0.0112 -0.01932,0.0231 -0.02842,0.0351 0.0054,-0.004 0.01138,-0.007 0.01601,-0.0119 0.0062,-0.006 0.01834,-0.0297 0.01241,-0.0233 z m 30.234843,0.42737 c -0.0312,-0.005 -0.0899,0.0655 -0.0594,0.0739 0.0323,0.009 0.0658,0.0133 0.0992,0.0186 0.0142,-0.0315 0.0287,-0.0653 0.0336,-0.076 -0.0246,-0.005 -0.0486,-0.0124 -0.0734,-0.0165 z m -0.27078,0.6227 c -0.003,-0.004 0.016,-0.001 0.0636,0.01 -0.001,0.006 -0.003,0.0122 -0.004,0.0176 -0.034,-0.0136 -0.0574,-0.0237 -0.06,-0.0274 z m -30.543355,1.58646 c -7.94e-4,0.002 -0.0018,0.005 -0.0027,0.007 0.0016,0.003 0.003,0.006 0.0047,0.009 0.0038,0.004 0.0076,0.007 0.01138,0.0109 -0.0048,-0.009 -0.0091,-0.0176 -0.01344,-0.0264 z m 0.03359,0.0393 c -0.0013,-1.1e-4 -0.0033,0.002 -0.0047,0.002 0.0011,0.001 0.0024,0.002 0.0036,0.003 5.29e-4,-0.002 5.29e-4,-0.004 0.0011,-0.005 z m 0.971002,1.04748 c 2.48e-4,2.7e-4 2.38e-4,8e-4 5.29e-4,0.001 -6.1e-5,-5.3e-4 6.1e-5,-1.2e-4 0,-0.001 z m 0.0052,0.0109 c -2.65e-4,5.3e-4 -2.43e-4,0.001 -5.29e-4,0.002 5.29e-4,-5.2e-4 0.0011,-2e-5 0.0016,-5.2e-4 z m 0.0011,0.001 c -2.64e-4,2.7e-4 -5.29e-4,8e-4 -0.0011,0.001 1.4e-4,2.3e-4 1.83e-4,1.5e-4 5.29e-4,0.001 -6.3e-5,-5.2e-4 0.0013,-5.2e-4 0.0011,-0.001 -2.06e-4,-2.6e-4 -2.43e-4,-7.9e-4 -5.29e-4,-0.001 z m 0.0016,0.006 c 5.29e-4,0.001 0.0011,0.003 0.0016,0.004 2.1e-5,-0.001 1.6e-5,-0.003 0,-0.004 -5.29e-4,-1e-5 -0.0011,-1e-5 -0.0016,0 z m 0.01497,0.0336 c 2.65e-4,5.3e-4 7.94e-4,0.001 0.0011,0.002 7.93e-4,-7.9e-4 0.0019,-7.9e-4 0.0026,-0.002 -0.0013,-1.9e-4 -0.0024,1.5e-4 -0.0036,0 z m 0.03927,0.0589 c -0.0011,8e-4 -0.0021,0.001 -0.0031,0.002 7.94e-4,0.001 0.0013,0.002 0.0021,0.003 -1.38e-4,-0.002 0.0016,-0.003 0.0011,-0.005 z m 1.351338,0.76585 c 2.46e-4,7.9e-4 -5.29e-4,0.002 -5.29e-4,0.003 0.0013,0.002 0.0031,0.004 0.0047,0.006 7.93e-4,5e-5 0.0013,-4e-5 0.0021,0 -0.0021,-0.003 -0.005,-0.009 -0.0062,-0.009 z m 1.24437,0.13436 c 3e-6,0.001 0,0.002 0,0.003 0.0016,2e-5 0.0035,0 0.0052,0 1.19e-4,-0.001 8e-5,-0.002 5.3e-4,-0.003 z m 25.564846,0.3824 c -0.0302,0.006 -0.0526,0.0311 -0.0791,0.0574 0.0384,0.006 0.0798,0.004 0.1204,0.005 l -0.007,-0.0574 c -0.0118,-0.003 -0.0243,-0.007 -0.0341,-0.005 z m -6.529317,6.21978 c -0.0182,0.0113 2.2e-5,0.0273 0.02997,0.045 0.0037,-0.002 0.0068,-0.005 0.01035,-0.007 0.02302,-0.014 0.02151,-0.0108 0.03617,-0.0196 -0.008,-0.009 -0.0277,-0.0121 -0.07648,-0.0186 z m -0.144695,0.0966 c -0.01876,0.013 -0.02021,0.0126 -0.03565,0.0233 l -0.0016,-0.002 c -0.0098,-0.0103 0.04895,-0.0306 0.03721,-0.0217 z m 1.224733,0.23461 c -0.0061,0.004 -0.01238,0.008 -0.0186,0.0119 5.29e-4,0.001 0.0016,0.003 0.0021,0.004 0.0055,-0.005 0.01101,-0.011 0.01654,-0.016 z m -7.383013,1.47846 c 0.0037,0.0315 0.01386,0.0542 0.02946,0.0703 -0.01143,-0.0267 -0.01064,-0.0272 -0.02946,-0.0703 z m 0.03617,0.0873 c -0.0063,0.004 -0.0137,0.007 -0.02273,0.009 0.06231,0.10866 0.06415,0.0883 0.02273,-0.009 z m 1.636593,1.66966 c 5.29e-4,0.0128 0.003,0.0249 0.01138,0.0346 0.04313,0.0499 0.09604,0.0811 0.152445,0.10542 -0.0584,-0.0499 -0.107347,-0.0916 -0.163814,-0.14005 z m 3.153812,0.36019 c -0.02344,0.0156 -0.04608,0.0323 -0.07028,0.047 0.04213,-0.009 0.08248,-0.0233 0.122989,-0.0372 -0.01754,-0.005 -0.03514,-0.006 -0.05271,-0.01 z m 2.668572,0.002 c 0.01241,0.0596 0.0249,0.11917 0.03721,0.17881 0.02185,-0.0203 0.04317,-0.0407 0.06459,-0.0615 -0.03367,-0.0393 -0.0667,-0.0791 -0.1018,-0.11731 z" />
    <path
       id="path1587"
       style="fill:#006bb5;fill-opacity:1;fill-rule:nonzero;stroke:none;stroke-width:0.352777"
       d="m 82.777669,88.215833 c -5.29e-4,0.02056 -0.003,0.04057 -0.0041,0.06098 0.0021,0.0011 0.0042,0.0016 0.0062,0.0026 7.94e-4,-0.02069 -2.65e-4,-0.04131 5.29e-4,-0.06201 -7.94e-4,-5.29e-4 -0.0019,-0.0011 -0.0026,-0.0016 z m 0.665591,0.135908 c 0.0024,0.01807 0.0039,0.03505 0.0052,0.04858 0.0062,0.0013 0.01386,0.0024 0.01963,0.0036 -0.009,-0.01778 -0.01672,-0.03476 -0.02479,-0.05219 z m -2.229321,0.04031 c -0.0071,0.0056 -0.01349,0.01225 -0.02119,0.01704 -0.01471,0.0092 -0.0308,0.01617 -0.04651,0.02376 0.015,-0.0027 0.02996,-0.0056 0.04496,-0.0083 0.0073,-0.01109 0.01529,-0.02159 0.02273,-0.03256 z m -1.916679,0.07545 c 0,0 -0.01275,0.02796 -0.01394,0.03049 0.0047,-0.0026 0.0093,-0.0052 0.01394,-0.0078 z m 4.957321,0.440285 c -0.0024,0.0096 -0.0039,0.01932 -0.0062,0.02894 0.0027,0.01072 0.0019,0.01802 0.0036,0.02791 0.0061,0.0064 0.01109,0.01318 0.01707,0.01963 0.0027,-0.01947 0.0019,-0.03741 -0.0036,-0.05375 -0.0024,-0.0071 -0.0078,-0.01537 -0.01085,-0.02273 z m -1.471745,0.451652 c -7.93e-4,0.0109 5.29e-4,0.02119 -0.0021,0.03255 0.0066,-0.003 0.01299,-0.0064 0.01963,-0.0093 -0.006,-0.0077 -0.01169,-0.0155 -0.01757,-0.02326 z m -3.474206,0.09353 c -0.0063,0.0016 -0.01273,0.0028 -0.01913,0.0041 -0.0026,0.0027 -0.0051,0.0056 -0.0078,0.0083 0.0049,0.0035 0.0097,0.0068 0.01497,0.01085 0.004,-0.0078 0.0079,-0.0155 0.01188,-0.02326 z m 0.08113,0.701768 c -0.0028,0.0016 -0.0037,0.0016 -0.0062,0.0031 -0.0016,0.0029 -0.003,0.0059 -0.0047,0.0088 0.0033,-0.0042 0.0075,-0.0077 0.01085,-0.01188 z m -0.488341,0.498676 c -5.29e-4,0.0071 7.9e-5,0.01397 -5.29e-4,0.02119 0.0026,-0.0054 0.0048,-0.01431 0.0078,-0.01654 -0.0021,-0.0019 -0.005,-0.0029 -0.0072,-0.0047 z m -0.08165,0.354502 c -0.0013,2.03e-4 -0.0028,2.51e-4 -0.0041,5.29e-4 v 0.0093 c 0.0013,-0.0033 0.0028,-0.0065 0.0041,-0.0098 z m 0.914675,0.915707 c -0.02387,0.05307 -0.04563,0.110254 -0.0646,0.173114 0.0078,-0.019 0.01648,-0.03764 0.02376,-0.05684 0.0456,-0.12037 0.03139,-0.08781 0.04082,-0.116271 z m -0.05995,0.55087 v 5.29e-4 c 2.65e-4,-1e-5 7.94e-4,1.4e-5 0.0011,0 -2.64e-4,-1.56e-4 -7.93e-4,-1.98e-4 -0.0011,-5.29e-4 z m 1.152385,0.611849 c -0.0087,0.01122 -0.01741,0.02252 -0.02635,0.03359 0.05074,0.01805 0.04391,-0.01302 0.02635,-0.03359 z" />
    <g
       transform="matrix(0.21881095,-0.0392097,-0.04446429,-0.19295286,76.017882,58.377819)"
       clip-path="url(#clipPath2583)"
       id="g2579">
      <g
         transform="matrix(0.95008084,0.01014401,0.01014401,0.99793865,173.37264,106.32193)"
         id="g2585">
        <path
           id="path2587"
           style="fill:#071f79;fill-opacity:1;fill-rule:nonzero;stroke:none"
           d="m 0,0 c 0,-46.617 -37.791,-84.407 -84.406,-84.407 -46.618,0 -84.409,37.79 -84.409,84.407 0,46.617 37.791,84.408 84.409,84.408 C -37.791,84.408 0,46.617 0,0" />
      </g>
      <g
         transform="translate(100.6094,122.8564)"
         id="g2589">
        <path
           id="path2591"
           style="fill:#ffffff;fill-opacity:1;fill-rule:nonzero;stroke:none"
           d="M 0,0 C -1.071,0.043 -2.095,0.037 -3.13,0.044 -4.166,0.037 -5.189,0.043 -6.259,0 c -53.33,-2.102 -61.206,-41.123 -61.206,-41.123 0,0 15.464,-45.626 28.368,-56.091 7.425,-6.025 26.31,-15.886 35.967,-16.642 9.657,0.756 28.54,10.617 35.967,16.642 12.903,10.465 28.368,56.091 28.368,56.091 0,0 -7.876,39.021 -61.205,41.123" />
      </g>
      <g
         transform="translate(82.2905,52.7578)"
         id="g2593">
        <path
           id="path2595"
           style="fill:#ffffff;fill-opacity:1;fill-rule:nonzero;stroke:none"
           d="m 0,0 c 0,0 -6.064,-8.475 -13.543,-8.475 -7.481,0 -13.544,8.475 -13.544,8.475 0,0 6.063,7.775 13.544,7.775 C -6.064,7.775 0,0 0,0" />
      </g>
      <g
         transform="translate(9,70.8394)"
         id="g2597">
        <path
           id="path2599"
           style="fill:#071f79;fill-opacity:1;fill-rule:nonzero;stroke:none"
           d="m 0,0 c 31.969,-1.841 42.277,25.518 42.277,25.518 0,0 21.362,-16.373 54.057,-25.607 42.579,-12.024 81.348,17.761 81.348,17.761 0,0 -32.071,12.554 -41.545,63.183 C 104.793,90.247 60.432,73.862 34.759,61.558 9.086,49.253 18.653,8.55 0,0" />
      </g>
      <g
         transform="translate(112.667,52.7578)"
         id="g2601">
        <path
           id="path2603"
           style="fill:#ffffff;fill-opacity:1;fill-rule:nonzero;stroke:none"
           d="m 0,0 c 0,0 6.064,-8.475 13.543,-8.475 7.48,0 13.544,8.475 13.544,8.475 0,0 -6.064,7.775 -13.544,7.775 C 6.064,7.775 0,0 0,0" />
      </g>
      <g
         transform="translate(117.9082,56.043)"
         id="g2605">
        <path
           id="path2607"
           style="fill:#231f20;fill-opacity:1;fill-rule:nonzero;stroke:none"
           d="M 0,0 C 0,0.642 0.081,1.266 0.22,1.868 2.16,4.049 5,5.432 8.179,5.432 c 3.359,0 6.346,-1.545 8.284,-3.945 C 16.551,1.004 16.602,0.508 16.602,0 16.602,-4.585 12.887,-8.302 8.301,-8.302 3.718,-8.302 0,-4.585 0,0" />
      </g>
      <g
         transform="translate(140.0479,52.1147)"
         id="g2609">
        <path
           id="path2611"
           style="fill:#231f20;fill-opacity:1;fill-rule:nonzero;stroke:none"
           d="m 0,0 c 0,0 -4.114,6.398 -12.531,8.002 -8.419,1.603 -14.85,-7.358 -14.85,-7.358 0,0 5.241,9.156 11.195,10.698 1.908,0.494 4.277,0.259 4.277,0.259 0,0 3.468,1.428 3.994,1.106 0.529,-0.321 -0.659,-1.925 -0.659,-1.925 0,0 3.915,1.577 4.168,1.026 0.251,-0.552 -1.13,-2.48 -1.13,-2.48 0,0 4.872,2.965 5.243,2.183 0.369,-0.783 -2.153,-3.415 -2.153,-3.415 0,0 7.966,3.757 8.325,2.302 C 6.24,8.943 0.334,4.606 0.334,4.606 c 0,0 10.171,4.013 10.423,2.501 0.25,-1.515 -10.864,-7.784 -10.864,-7.784 z" />
      </g>
      <g
         transform="translate(123.6885,55.9985)"
         id="g2613">
        <path
           id="path2615"
           style="fill:#ffffff;fill-opacity:1;fill-rule:nonzero;stroke:none"
           d="m 0,0 c 0,-1.191 -0.966,-2.158 -2.155,-2.158 -1.191,0 -2.156,0.967 -2.156,2.158 0,1.19 0.965,2.153 2.156,2.153 C -0.966,2.153 0,1.19 0,0" />
      </g>
      <g
         transform="translate(54.9092,52.1147)"
         id="g2617">
        <path
           id="path2619"
           style="fill:#231f20;fill-opacity:1;fill-rule:nonzero;stroke:none"
           d="m 0,0 c 0,0 4.115,6.398 12.533,8.002 8.418,1.603 14.849,-7.358 14.849,-7.358 0,0 -5.243,9.156 -11.196,10.698 -1.909,0.494 -4.277,0.259 -4.277,0.259 0,0 -3.467,1.428 -3.994,1.106 -0.527,-0.321 0.66,-1.925 0.66,-1.925 0,0 -3.918,1.577 -4.169,1.026 -0.252,-0.552 1.13,-2.48 1.13,-2.48 0,0 -4.873,2.965 -5.242,2.183 -0.37,-0.783 2.153,-3.415 2.153,-3.415 0,0 -7.966,3.757 -8.326,2.302 -0.36,-1.455 5.545,-5.792 5.545,-5.792 0,0 -10.17,4.013 -10.42,2.501 -0.252,-1.515 10.861,-7.784 10.861,-7.784 z" />
      </g>
      <g
         transform="translate(77.0479,56.043)"
         id="g2621">
        <path
           id="path2623"
           style="fill:#231f20;fill-opacity:1;fill-rule:nonzero;stroke:none"
           d="m 0,0 c 0,0.642 -0.081,1.266 -0.218,1.868 -1.941,2.181 -4.783,3.564 -7.96,3.564 -3.359,0 -6.346,-1.545 -8.284,-3.945 C -16.55,1.004 -16.603,0.508 -16.603,0 c 0,-4.585 3.716,-8.302 8.302,-8.302 C -3.716,-8.302 0,-4.585 0,0" />
      </g>
      <g
         transform="translate(66.1777,55.9971)"
         id="g2625">
        <path
           id="path2627"
           style="fill:#ffffff;fill-opacity:1;fill-rule:nonzero;stroke:none"
           d="m 0,0 c 0,-1.191 -0.966,-2.156 -2.155,-2.156 -1.191,0 -2.157,0.965 -2.157,2.156 0,1.19 0.966,2.155 2.157,2.155 C -0.966,2.155 0,1.19 0,0" />
      </g>
      <g
         transform="translate(94.1978,40.9204)"
         id="g2629">
        <path
           id="path2631"
           style="fill:#231f20;fill-opacity:1;fill-rule:nonzero;stroke:none"
           d="M 0,0 C 0.917,0.549 1.999,0.866 3.164,0.866 4.328,0.866 5.41,0.549 6.329,0 7.015,-0.104 7.665,-0.236 8.264,-0.398 7.197,1.226 5.318,2.314 3.164,2.314 1.009,2.314 -0.869,1.226 -1.937,-0.398 -1.339,-0.236 -0.687,-0.104 0,0" />
      </g>
      <g
         transform="translate(56.457,39.8042)"
         id="g2633">
        <path
           id="path2635"
           style="fill:#231f20;fill-opacity:1;fill-rule:nonzero;stroke:none"
           d="m 0,0 c -0.181,0.021 -4.387,1.309 -7.911,5.006 -4.733,4.966 -4.457,8.661 -4.716,9.74 l 1.033,-2.014 c 0.009,-0.048 1.255,-3.869 4.555,-6.745 C -3.537,2.934 0.136,1.44 0.176,1.436 Z" />
      </g>
      <g
         transform="translate(138.4648,39.8042)"
         id="g2637">
        <path
           id="path2639"
           style="fill:#231f20;fill-opacity:1;fill-rule:nonzero;stroke:none"
           d="m 0,0 c 0.181,0.021 4.388,1.309 7.912,5.006 4.734,4.966 4.456,8.661 4.715,9.74 L 11.594,12.732 C 11.585,12.684 10.341,8.863 7.04,5.987 3.539,2.934 -0.137,1.44 -0.176,1.436 Z" />
      </g>
      <g
         transform="translate(93.5449,41.7104)"
         id="g2641">
        <path
           id="path2643"
           style="fill:#231f20;fill-opacity:1;fill-rule:nonzero;stroke:none"
           d="m 0,0 c -0.823,2.366 -17.322,2.437 -19.2,2.437 -12.431,0 -18.904,-0.991 -19.248,-3.043 0,-6.48 8.836,-14.398 19.146,-14.398 10.176,0 18.913,7.709 19.143,14.139 C 0.124,-0.504 0.054,-0.152 0,0 m -1.395,-1.083 c 0,-4.739 -7.043,-12.051 -16.399,-12.051 -9.357,0 -16.399,7.312 -16.412,11.939 0.322,0.707 4.982,1.759 16.504,1.759 8.944,0 14.949,-0.773 16.307,-1.386 z" />
      </g>
      <g
         transform="translate(101.5352,40.8452)"
         id="g2645">
        <path
           id="path2647"
           style="fill:#231f20;fill-opacity:1;fill-rule:nonzero;stroke:none"
           d="m 0,0 c 0.23,-6.43 8.969,-14.139 19.143,-14.139 10.312,0 19.148,7.918 19.148,14.398 -0.345,2.052 -6.82,3.043 -19.248,3.043 -1.88,0 -18.379,-0.07 -19.201,-2.437 C -0.212,0.712 -0.281,0.361 0,0 m 1.236,0.043 c 1.362,0.613 7.366,1.386 16.308,1.386 11.521,0 16.181,-1.051 16.503,-1.759 -0.013,-4.627 -7.053,-11.938 -16.41,-11.938 -9.358,0 -16.401,7.311 -16.401,12.05 z" />
      </g>
      <text
         xml:space="preserve"
         id="text2751"
         style="font-weight:bold;font-size:50.47489999999999810px;line-height:1.25;font-family:sans-serif;-inkscape-font-specification:'sans-serif Bold';white-space:pre;shape-inside:url(#rect2753);" />
      <text
         xml:space="preserve"
         id="text2757"
         style="font-weight:bold;font-size:50.47489999999999810px;line-height:1.25;font-family:sans-serif;-inkscape-font-specification:'sans-serif Bold';white-space:pre;shape-inside:url(#rect2759);" />
      <text
         xml:space="preserve"
         id="text2763"
         style="font-weight:bold;font-size:50.47489999999999810px;line-height:1.25;font-family:sans-serif;-inkscape-font-specification:'sans-serif Bold';white-space:pre;shape-inside:url(#rect2765);" />
      <text
         xml:space="preserve"
         id="text2769"
         style="font-weight:bold;font-size:50.47489999999999810px;line-height:1.25;font-family:sans-serif;-inkscape-font-specification:'sans-serif Bold';white-space:pre;shape-inside:url(#rect2771);"><tspan
           style="visibility:hidden"
           x="267.2207"
           y="-148.43655"><tspan
             dx="0 35.292995 32.828403 17.252159 33.71566 35.292984 17.252167 33.518494">pyladies</tspan></tspan></text>
    </g>
    <text
       xml:space="preserve"
       id="text2775"
       style="font-weight:bold;font-size:29.07829999999999870px;line-height:1.25;font-family:sans-serif;-inkscape-font-specification:'sans-serif Bold';white-space:pre;shape-inside:url(#rect2777);fill:url(#linearGradient6169);fill-opacity:1;fill-rule:evenodd;stroke:url(#linearGradient2819);stroke-opacity:1;"
       transform="matrix(0.8984279,0,0,0.46789438,28.961481,3.218111)"><tspan
         x="61.677734"
         y="137.2087"><tspan
           style="font-style:normal;font-variant:normal;font-weight:bold;font-stretch:normal;font-size:29.0783px;font-family:Trattatello;-inkscape-font-specification:'Trattatello Bold';fill:url(#linearGradient6169);fill-opacity:1;fill-rule:evenodd;stroke:url(#linearGradient2819);stroke-opacity:1">pyladies
</tspan></tspan></text>
    <text
       xml:space="preserve"
       style="font-weight:bold;font-size:10.1383px;line-height:1.25;font-family:sans-serif;-inkscape-font-specification:'sans-serif Bold';stroke-width:0.253458"
       x="97.472855"
       y="78.98539"
       id="text2823"
       transform="scale(0.95795177,1.0438939)"><tspan
         id="tspan2821"
         x="97.472855"
         y="78.98539"
         style="font-style:normal;font-variant:normal;font-weight:bold;font-stretch:normal;font-family:Chalkduster;-inkscape-font-specification:'Chalkduster Bold';stroke-width:0.253458">ECUADOR</tspan></text>
  </g>
</svg>
